<mxfile host="app.diagrams.net" modified="2023-10-25T11:23:10.540Z" agent="Mozilla/5.0 (Windows NT 10.0; Win64; x64) AppleWebKit/537.36 (KHTML, like Gecko) Chrome/118.0.0.0 Safari/537.36" etag="iPTnNRdFdGsHMwoka8rQ" version="22.0.8" type="google">
  <diagram id="C5RBs43oDa-KdzZeNtuy" name="Page-1">
    <mxGraphModel grid="1" page="1" gridSize="10" guides="1" tooltips="1" connect="1" arrows="1" fold="1" pageScale="1" pageWidth="827" pageHeight="1169" math="0" shadow="0">
      <root>
        <mxCell id="WIyWlLk6GJQsqaUBKTNV-0" />
        <mxCell id="WIyWlLk6GJQsqaUBKTNV-1" parent="WIyWlLk6GJQsqaUBKTNV-0" />
        <mxCell id="2iRlPU97kEJJlgAq3W9q-2" value="" style="endArrow=none;html=1;rounded=0;entryX=0.125;entryY=0.82;entryDx=0;entryDy=0;entryPerimeter=0;exitX=0.5;exitY=0;exitDx=0;exitDy=0;exitPerimeter=0;" edge="1" parent="WIyWlLk6GJQsqaUBKTNV-1" source="2iRlPU97kEJJlgAq3W9q-4" target="2iRlPU97kEJJlgAq3W9q-0">
          <mxGeometry width="50" height="50" relative="1" as="geometry">
            <mxPoint x="130" y="278" as="sourcePoint" />
            <mxPoint x="307.03999999999996" y="106" as="targetPoint" />
          </mxGeometry>
        </mxCell>
        <mxCell id="2iRlPU97kEJJlgAq3W9q-5" value="" style="endArrow=none;html=1;rounded=0;entryX=0.25;entryY=0.92;entryDx=0;entryDy=0;entryPerimeter=0;" edge="1" parent="WIyWlLk6GJQsqaUBKTNV-1" source="bgD5cLqDtki60Nd9rSZ_-83" target="2iRlPU97kEJJlgAq3W9q-0">
          <mxGeometry width="50" height="50" relative="1" as="geometry">
            <mxPoint x="172.2823920541182" y="160.7967120791468" as="sourcePoint" />
            <mxPoint x="330" y="70" as="targetPoint" />
          </mxGeometry>
        </mxCell>
        <mxCell id="2iRlPU97kEJJlgAq3W9q-9" value="" style="endArrow=none;html=1;rounded=0;entryX=0.6;entryY=1.02;entryDx=0;entryDy=0;entryPerimeter=0;exitX=0.5;exitY=0;exitDx=0;exitDy=0;exitPerimeter=0;" edge="1" parent="WIyWlLk6GJQsqaUBKTNV-1" source="2iRlPU97kEJJlgAq3W9q-8" target="2iRlPU97kEJJlgAq3W9q-0">
          <mxGeometry width="50" height="50" relative="1" as="geometry">
            <mxPoint x="440" y="270" as="sourcePoint" />
            <mxPoint x="397" y="115" as="targetPoint" />
            <Array as="points" />
          </mxGeometry>
        </mxCell>
        <mxCell id="2iRlPU97kEJJlgAq3W9q-10" value="" style="endArrow=none;html=1;rounded=0;exitX=0.5;exitY=0;exitDx=0;exitDy=0;exitPerimeter=0;entryX=0.792;entryY=0.92;entryDx=0;entryDy=0;entryPerimeter=0;" edge="1" parent="WIyWlLk6GJQsqaUBKTNV-1" target="2iRlPU97kEJJlgAq3W9q-0">
          <mxGeometry width="50" height="50" relative="1" as="geometry">
            <mxPoint x="710" y="150" as="sourcePoint" />
            <mxPoint x="410" y="100" as="targetPoint" />
          </mxGeometry>
        </mxCell>
        <mxCell id="2iRlPU97kEJJlgAq3W9q-68" value="" style="group" connectable="0" vertex="1" parent="WIyWlLk6GJQsqaUBKTNV-1">
          <mxGeometry x="294" y="-50" width="120" height="50" as="geometry" />
        </mxCell>
        <object label="" id="2iRlPU97kEJJlgAq3W9q-0">
          <mxCell style="ellipse;whiteSpace=wrap;html=1;points=[[0,0,0,0,0],[0,0.5,0,0,0],[0,1,0,0,0],[0.5,0,0,0,0],[0.5,1,0,0,0],[1,0,0,0,0],[1,0.5,0,0,0],[1,1,0,0,0]];" vertex="1" parent="2iRlPU97kEJJlgAq3W9q-68">
            <mxGeometry width="120" height="50" as="geometry" />
          </mxCell>
        </object>
        <mxCell id="2iRlPU97kEJJlgAq3W9q-15" value="&lt;h1&gt;&lt;font style=&quot;font-size: 11px; font-weight: normal;&quot;&gt;Fesztival_VBNYZW&lt;/font&gt;&lt;/h1&gt;" style="text;html=1;strokeColor=none;fillColor=none;spacing=5;spacingTop=-20;whiteSpace=wrap;overflow=hidden;rounded=0;" vertex="1" parent="2iRlPU97kEJJlgAq3W9q-68">
          <mxGeometry x="5" width="110" height="40" as="geometry" />
        </mxCell>
        <mxCell id="2iRlPU97kEJJlgAq3W9q-70" style="edgeStyle=orthogonalEdgeStyle;rounded=0;orthogonalLoop=1;jettySize=auto;html=1;exitX=0.5;exitY=1;exitDx=0;exitDy=0;" edge="1" parent="2iRlPU97kEJJlgAq3W9q-68" source="2iRlPU97kEJJlgAq3W9q-15" target="2iRlPU97kEJJlgAq3W9q-15">
          <mxGeometry relative="1" as="geometry" />
        </mxCell>
        <mxCell id="2iRlPU97kEJJlgAq3W9q-149" value="" style="endArrow=none;dashed=1;html=1;rounded=0;" edge="1" parent="WIyWlLk6GJQsqaUBKTNV-1">
          <mxGeometry width="50" height="50" relative="1" as="geometry">
            <mxPoint x="-260" y="475" as="sourcePoint" />
            <mxPoint x="30" y="270" as="targetPoint" />
            <Array as="points">
              <mxPoint x="-260" y="585" />
              <mxPoint x="30" y="585" />
            </Array>
          </mxGeometry>
        </mxCell>
        <mxCell id="2iRlPU97kEJJlgAq3W9q-153" value="" style="endArrow=none;dashed=1;html=1;rounded=0;" edge="1" parent="WIyWlLk6GJQsqaUBKTNV-1">
          <mxGeometry width="50" height="50" relative="1" as="geometry">
            <mxPoint x="-290" y="492" as="sourcePoint" />
            <mxPoint x="280" y="260" as="targetPoint" />
            <Array as="points">
              <mxPoint x="-290" y="632" />
              <mxPoint x="280" y="632" />
            </Array>
          </mxGeometry>
        </mxCell>
        <mxCell id="2iRlPU97kEJJlgAq3W9q-169" value="" style="group" connectable="0" vertex="1" parent="WIyWlLk6GJQsqaUBKTNV-1">
          <mxGeometry x="626" y="301" width="70" height="39" as="geometry" />
        </mxCell>
        <object label="" id="2iRlPU97kEJJlgAq3W9q-170">
          <mxCell style="ellipse;whiteSpace=wrap;html=1;points=[[0,0,0,0,0],[0,0.5,0,0,0],[0,1,0,0,0],[0.5,0,0,0,0],[0.5,1,0,0,0],[1,0,0,0,0],[1,0.5,0,0,0],[1,1,0,0,0]];" vertex="1" parent="2iRlPU97kEJJlgAq3W9q-169">
            <mxGeometry y="9" width="70" height="30" as="geometry" />
          </mxCell>
        </object>
        <mxCell id="2iRlPU97kEJJlgAq3W9q-171" value="&lt;h1&gt;&lt;span style=&quot;font-size: 11px; font-weight: 400;&quot;&gt;név&lt;/span&gt;&lt;/h1&gt;" style="text;html=1;strokeColor=none;fillColor=none;spacing=5;spacingTop=-20;whiteSpace=wrap;overflow=hidden;rounded=0;" vertex="1" parent="2iRlPU97kEJJlgAq3W9q-169">
          <mxGeometry x="21.5" y="-1" width="25" height="37" as="geometry" />
        </mxCell>
        <mxCell id="2iRlPU97kEJJlgAq3W9q-184" value="" style="group" connectable="0" vertex="1" parent="WIyWlLk6GJQsqaUBKTNV-1">
          <mxGeometry x="850" y="178" width="64.5" height="68" as="geometry" />
        </mxCell>
        <mxCell id="2iRlPU97kEJJlgAq3W9q-185" value="" style="rhombus;whiteSpace=wrap;html=1;" vertex="1" parent="2iRlPU97kEJJlgAq3W9q-184">
          <mxGeometry width="60" height="68" as="geometry" />
        </mxCell>
        <mxCell id="2iRlPU97kEJJlgAq3W9q-186" value="&lt;h1 style=&quot;font-size: 10px;&quot;&gt;&lt;span style=&quot;font-size: 10px; font-weight: 400;&quot;&gt;&lt;u&gt;R_ID&lt;/u&gt;&lt;/span&gt;&lt;/h1&gt;" style="text;html=1;strokeColor=none;fillColor=none;spacing=5;spacingTop=-20;whiteSpace=wrap;overflow=hidden;rounded=0;fontSize=10;" vertex="1" parent="2iRlPU97kEJJlgAq3W9q-184">
          <mxGeometry x="13" y="30" width="33.75" height="8" as="geometry" />
        </mxCell>
        <mxCell id="2iRlPU97kEJJlgAq3W9q-210" value="" style="group" connectable="0" vertex="1" parent="WIyWlLk6GJQsqaUBKTNV-1">
          <mxGeometry x="600" y="359" width="220" height="168" as="geometry" />
        </mxCell>
        <mxCell id="2iRlPU97kEJJlgAq3W9q-191" value="" style="group" connectable="0" vertex="1" parent="2iRlPU97kEJJlgAq3W9q-210">
          <mxGeometry x="170" y="128" width="70" height="39" as="geometry" />
        </mxCell>
        <object label="" id="2iRlPU97kEJJlgAq3W9q-192">
          <mxCell style="ellipse;whiteSpace=wrap;html=1;points=[[0,0,0,0,0],[0,0.5,0,0,0],[0,1,0,0,0],[0.5,0,0,0,0],[0.5,1,0,0,0],[1,0,0,0,0],[1,0.5,0,0,0],[1,1,0,0,0]];" vertex="1" parent="2iRlPU97kEJJlgAq3W9q-191">
            <mxGeometry y="9" width="70" height="30" as="geometry" />
          </mxCell>
        </object>
        <mxCell id="2iRlPU97kEJJlgAq3W9q-193" value="&lt;h1&gt;&lt;span style=&quot;font-size: 11px; font-weight: 400;&quot;&gt;házszám&lt;/span&gt;&lt;/h1&gt;" style="text;html=1;strokeColor=none;fillColor=none;spacing=5;spacingTop=-20;whiteSpace=wrap;overflow=hidden;rounded=0;" vertex="1" parent="2iRlPU97kEJJlgAq3W9q-191">
          <mxGeometry x="7" width="70" height="37" as="geometry" />
        </mxCell>
        <mxCell id="2iRlPU97kEJJlgAq3W9q-197" value="" style="group" connectable="0" vertex="1" parent="2iRlPU97kEJJlgAq3W9q-210">
          <mxGeometry x="95" y="128" width="70" height="40" as="geometry" />
        </mxCell>
        <object label="" id="2iRlPU97kEJJlgAq3W9q-198">
          <mxCell style="ellipse;whiteSpace=wrap;html=1;points=[[0,0,0,0,0],[0,0.5,0,0,0],[0,1,0,0,0],[0.5,0,0,0,0],[0.5,1,0,0,0],[1,0,0,0,0],[1,0.5,0,0,0],[1,1,0,0,0]];" vertex="1" parent="2iRlPU97kEJJlgAq3W9q-197">
            <mxGeometry y="10" width="70" height="30" as="geometry" />
          </mxCell>
        </object>
        <mxCell id="2iRlPU97kEJJlgAq3W9q-204" value="" style="endArrow=none;html=1;rounded=0;entryX=0;entryY=1;entryDx=0;entryDy=0;" edge="1" parent="2iRlPU97kEJJlgAq3W9q-210">
          <mxGeometry width="50" height="50" relative="1" as="geometry">
            <mxPoint x="60" y="141" as="sourcePoint" />
            <mxPoint x="102.5" y="20" as="targetPoint" />
          </mxGeometry>
        </mxCell>
        <mxCell id="2iRlPU97kEJJlgAq3W9q-205" value="" style="endArrow=none;html=1;rounded=0;entryX=0.357;entryY=1.027;entryDx=0;entryDy=0;entryPerimeter=0;" edge="1" parent="2iRlPU97kEJJlgAq3W9q-210" target="bgD5cLqDtki60Nd9rSZ_-99">
          <mxGeometry width="50" height="50" relative="1" as="geometry">
            <mxPoint x="130" y="141" as="sourcePoint" />
            <mxPoint x="114.375" y="20" as="targetPoint" />
          </mxGeometry>
        </mxCell>
        <mxCell id="2iRlPU97kEJJlgAq3W9q-206" value="" style="endArrow=none;html=1;rounded=0;entryX=0.671;entryY=1;entryDx=0;entryDy=0;entryPerimeter=0;" edge="1" parent="2iRlPU97kEJJlgAq3W9q-210" source="2iRlPU97kEJJlgAq3W9q-193" target="bgD5cLqDtki60Nd9rSZ_-99">
          <mxGeometry width="50" height="50" relative="1" as="geometry">
            <mxPoint x="170" y="138" as="sourcePoint" />
            <mxPoint x="126.25" y="20" as="targetPoint" />
          </mxGeometry>
        </mxCell>
        <mxCell id="2iRlPU97kEJJlgAq3W9q-207" value="" style="group" connectable="0" vertex="1" parent="2iRlPU97kEJJlgAq3W9q-210">
          <mxGeometry x="20" y="128" width="70" height="39" as="geometry" />
        </mxCell>
        <object label="" id="2iRlPU97kEJJlgAq3W9q-195">
          <mxCell style="ellipse;whiteSpace=wrap;html=1;points=[[0,0,0,0,0],[0,0.5,0,0,0],[0,1,0,0,0],[0.5,0,0,0,0],[0.5,1,0,0,0],[1,0,0,0,0],[1,0.5,0,0,0],[1,1,0,0,0]];container=0;" vertex="1" parent="2iRlPU97kEJJlgAq3W9q-207">
            <mxGeometry y="9" width="70" height="30" as="geometry" />
          </mxCell>
        </object>
        <mxCell id="2iRlPU97kEJJlgAq3W9q-196" value="&lt;h1&gt;&lt;span style=&quot;font-size: 11px; font-weight: 400;&quot;&gt;település&lt;/span&gt;&lt;/h1&gt;" style="text;html=1;strokeColor=none;fillColor=none;spacing=5;spacingTop=-20;whiteSpace=wrap;overflow=hidden;rounded=0;container=0;" vertex="1" parent="2iRlPU97kEJJlgAq3W9q-207">
          <mxGeometry x="5" width="60" height="37" as="geometry" />
        </mxCell>
        <mxCell id="2iRlPU97kEJJlgAq3W9q-199" value="&lt;h1&gt;&lt;span style=&quot;font-size: 11px; font-weight: 400;&quot;&gt;utca&lt;/span&gt;&lt;/h1&gt;" style="text;html=1;strokeColor=none;fillColor=none;spacing=5;spacingTop=-20;whiteSpace=wrap;overflow=hidden;rounded=0;" vertex="1" parent="2iRlPU97kEJJlgAq3W9q-210">
          <mxGeometry x="115" y="128" width="47.5" height="40" as="geometry" />
        </mxCell>
        <mxCell id="bgD5cLqDtki60Nd9rSZ_-62" value="" style="group" connectable="0" vertex="1" parent="2iRlPU97kEJJlgAq3W9q-210">
          <mxGeometry x="40" y="-20" width="30" height="90" as="geometry" />
        </mxCell>
        <mxCell id="bgD5cLqDtki60Nd9rSZ_-63" value="" style="endArrow=none;html=1;rounded=0;" edge="1" parent="bgD5cLqDtki60Nd9rSZ_-62">
          <mxGeometry width="50" height="50" relative="1" as="geometry">
            <mxPoint x="16" y="37" as="sourcePoint" />
            <mxPoint x="16" y="-3" as="targetPoint" />
          </mxGeometry>
        </mxCell>
        <mxCell id="bgD5cLqDtki60Nd9rSZ_-64" value="" style="rounded=0;whiteSpace=wrap;html=1;direction=south;" vertex="1" parent="bgD5cLqDtki60Nd9rSZ_-62">
          <mxGeometry x="2" y="38" width="30" height="50" as="geometry" />
        </mxCell>
        <mxCell id="bgD5cLqDtki60Nd9rSZ_-65" value="" style="group" connectable="0" vertex="1" parent="2iRlPU97kEJJlgAq3W9q-210">
          <mxGeometry x="177" y="-16" width="30" height="90" as="geometry" />
        </mxCell>
        <mxCell id="bgD5cLqDtki60Nd9rSZ_-66" value="" style="endArrow=none;html=1;rounded=0;" edge="1" parent="bgD5cLqDtki60Nd9rSZ_-65">
          <mxGeometry width="50" height="50" relative="1" as="geometry">
            <mxPoint x="16" y="37" as="sourcePoint" />
            <mxPoint x="16" y="-3" as="targetPoint" />
          </mxGeometry>
        </mxCell>
        <mxCell id="bgD5cLqDtki60Nd9rSZ_-67" value="" style="rounded=0;whiteSpace=wrap;html=1;direction=south;" vertex="1" parent="bgD5cLqDtki60Nd9rSZ_-65">
          <mxGeometry x="2" y="38" width="30" height="50" as="geometry" />
        </mxCell>
        <mxCell id="bgD5cLqDtki60Nd9rSZ_-96" value="" style="group" connectable="0" vertex="1" parent="2iRlPU97kEJJlgAq3W9q-210">
          <mxGeometry x="83.75" y="10.5" width="76.25" height="39" as="geometry" />
        </mxCell>
        <object label="" id="bgD5cLqDtki60Nd9rSZ_-97">
          <mxCell style="ellipse;whiteSpace=wrap;html=1;points=[[0,0,0,0,0],[0,0.5,0,0,0],[0,1,0,0,0],[0.5,0,0,0,0],[0.5,1,0,0,0],[1,0,0,0,0],[1,0.5,0,0,0],[1,1,0,0,0]];" vertex="1" parent="bgD5cLqDtki60Nd9rSZ_-96">
            <mxGeometry y="-18" width="70" height="30" as="geometry" />
          </mxCell>
        </object>
        <mxCell id="bgD5cLqDtki60Nd9rSZ_-99" value="&lt;h1&gt;&lt;span style=&quot;font-size: 11px; font-weight: 400;&quot;&gt;lakcím&lt;/span&gt;&lt;/h1&gt;" style="text;html=1;strokeColor=none;fillColor=none;spacing=5;spacingTop=-20;whiteSpace=wrap;overflow=hidden;rounded=0;" vertex="1" parent="bgD5cLqDtki60Nd9rSZ_-96">
          <mxGeometry x="14.25" y="-26.5" width="70" height="37" as="geometry" />
        </mxCell>
        <mxCell id="2iRlPU97kEJJlgAq3W9q-211" value="" style="endArrow=none;html=1;rounded=0;exitX=0;exitY=0.5;exitDx=0;exitDy=0;" edge="1" parent="WIyWlLk6GJQsqaUBKTNV-1" source="2iRlPU97kEJJlgAq3W9q-185" target="bgD5cLqDtki60Nd9rSZ_-92">
          <mxGeometry width="50" height="50" relative="1" as="geometry">
            <mxPoint x="640" y="150.98000000000002" as="sourcePoint" />
            <mxPoint x="679" y="99.99999999999999" as="targetPoint" />
          </mxGeometry>
        </mxCell>
        <mxCell id="2iRlPU97kEJJlgAq3W9q-212" value="" style="endArrow=none;html=1;rounded=0;entryX=0.33;entryY=0.983;entryDx=0;entryDy=0;entryPerimeter=0;" edge="1" parent="WIyWlLk6GJQsqaUBKTNV-1" target="bgD5cLqDtki60Nd9rSZ_-92">
          <mxGeometry width="50" height="50" relative="1" as="geometry">
            <mxPoint x="660" y="310" as="sourcePoint" />
            <mxPoint x="710" y="200" as="targetPoint" />
          </mxGeometry>
        </mxCell>
        <mxCell id="2iRlPU97kEJJlgAq3W9q-213" value="" style="endArrow=none;html=1;rounded=0;entryX=0.76;entryY=0.95;entryDx=0;entryDy=0;entryPerimeter=0;exitX=0;exitY=0.5;exitDx=0;exitDy=0;" edge="1" parent="WIyWlLk6GJQsqaUBKTNV-1" source="2iRlPU97kEJJlgAq3W9q-183" target="bgD5cLqDtki60Nd9rSZ_-92">
          <mxGeometry width="50" height="50" relative="1" as="geometry">
            <mxPoint x="750" y="310" as="sourcePoint" />
            <mxPoint x="724.04" y="198" as="targetPoint" />
          </mxGeometry>
        </mxCell>
        <mxCell id="2iRlPU97kEJJlgAq3W9q-214" value="" style="endArrow=none;html=1;rounded=0;entryX=0.5;entryY=1;entryDx=0;entryDy=0;exitX=0.5;exitY=0;exitDx=0;exitDy=0;exitPerimeter=0;" edge="1" parent="WIyWlLk6GJQsqaUBKTNV-1" target="bgD5cLqDtki60Nd9rSZ_-92">
          <mxGeometry width="50" height="50" relative="1" as="geometry">
            <mxPoint x="720" y="351" as="sourcePoint" />
            <mxPoint x="717" y="200" as="targetPoint" />
          </mxGeometry>
        </mxCell>
        <mxCell id="2iRlPU97kEJJlgAq3W9q-263" value="" style="group" connectable="0" vertex="1" parent="WIyWlLk6GJQsqaUBKTNV-1">
          <mxGeometry x="710" y="301" width="100" height="40" as="geometry" />
        </mxCell>
        <object label="" id="2iRlPU97kEJJlgAq3W9q-182">
          <mxCell style="ellipse;whiteSpace=wrap;html=1;points=[[0,0,0,0,0],[0,0.5,0,0,0],[0,1,0,0,0],[0.5,0,0,0,0],[0.5,1,0,0,0],[1,0,0,0,0],[1,0.5,0,0,0],[1,1,0,0,0]];" vertex="1" parent="2iRlPU97kEJJlgAq3W9q-263">
            <mxGeometry x="30" y="10" width="100" height="30" as="geometry" />
          </mxCell>
        </object>
        <mxCell id="2iRlPU97kEJJlgAq3W9q-183" value="&lt;h1&gt;&lt;span style=&quot;font-size: 11px; font-weight: 400;&quot;&gt;diákigazolvány&lt;/span&gt;&lt;/h1&gt;" style="text;html=1;strokeColor=none;fillColor=none;spacing=5;spacingTop=-20;whiteSpace=wrap;overflow=hidden;rounded=0;" vertex="1" parent="2iRlPU97kEJJlgAq3W9q-263">
          <mxGeometry x="45" width="85" height="37" as="geometry" />
        </mxCell>
        <mxCell id="bgD5cLqDtki60Nd9rSZ_-20" value="" style="group" connectable="0" vertex="1" parent="WIyWlLk6GJQsqaUBKTNV-1">
          <mxGeometry x="60" y="342" width="30" height="90" as="geometry" />
        </mxCell>
        <mxCell id="bgD5cLqDtki60Nd9rSZ_-21" value="" style="endArrow=none;html=1;rounded=0;" edge="1" parent="bgD5cLqDtki60Nd9rSZ_-20">
          <mxGeometry width="50" height="50" relative="1" as="geometry">
            <mxPoint x="15" y="40" as="sourcePoint" />
            <mxPoint x="15" as="targetPoint" />
          </mxGeometry>
        </mxCell>
        <mxCell id="bgD5cLqDtki60Nd9rSZ_-22" value="" style="rounded=0;whiteSpace=wrap;html=1;direction=south;" vertex="1" parent="bgD5cLqDtki60Nd9rSZ_-20">
          <mxGeometry y="40" width="30" height="50" as="geometry" />
        </mxCell>
        <mxCell id="bgD5cLqDtki60Nd9rSZ_-26" value="" style="rounded=0;whiteSpace=wrap;html=1;direction=south;" vertex="1" parent="WIyWlLk6GJQsqaUBKTNV-1">
          <mxGeometry x="140" y="382" width="30" height="50" as="geometry" />
        </mxCell>
        <mxCell id="bgD5cLqDtki60Nd9rSZ_-24" value="" style="group" connectable="0" vertex="1" parent="WIyWlLk6GJQsqaUBKTNV-1">
          <mxGeometry x="140" y="341" width="30" height="90" as="geometry" />
        </mxCell>
        <mxCell id="bgD5cLqDtki60Nd9rSZ_-25" value="" style="endArrow=none;html=1;rounded=0;" edge="1" parent="bgD5cLqDtki60Nd9rSZ_-24">
          <mxGeometry width="50" height="50" relative="1" as="geometry">
            <mxPoint x="15" y="40" as="sourcePoint" />
            <mxPoint x="15" as="targetPoint" />
          </mxGeometry>
        </mxCell>
        <mxCell id="bgD5cLqDtki60Nd9rSZ_-30" value="" style="rounded=0;whiteSpace=wrap;html=1;direction=south;" vertex="1" parent="WIyWlLk6GJQsqaUBKTNV-1">
          <mxGeometry x="220" y="380" width="30" height="50" as="geometry" />
        </mxCell>
        <mxCell id="bgD5cLqDtki60Nd9rSZ_-29" value="" style="endArrow=none;html=1;rounded=0;" edge="1" parent="WIyWlLk6GJQsqaUBKTNV-1">
          <mxGeometry width="50" height="50" relative="1" as="geometry">
            <mxPoint x="235.5" y="379" as="sourcePoint" />
            <mxPoint x="235.5" y="339" as="targetPoint" />
          </mxGeometry>
        </mxCell>
        <mxCell id="bgD5cLqDtki60Nd9rSZ_-31" value="" style="rounded=0;whiteSpace=wrap;html=1;direction=south;" vertex="1" parent="WIyWlLk6GJQsqaUBKTNV-1">
          <mxGeometry x="310" y="381" width="30" height="50" as="geometry" />
        </mxCell>
        <mxCell id="bgD5cLqDtki60Nd9rSZ_-32" value="" style="endArrow=none;html=1;rounded=0;" edge="1" parent="WIyWlLk6GJQsqaUBKTNV-1">
          <mxGeometry width="50" height="50" relative="1" as="geometry">
            <mxPoint x="325.5" y="380" as="sourcePoint" />
            <mxPoint x="325.5" y="340" as="targetPoint" />
          </mxGeometry>
        </mxCell>
        <mxCell id="bgD5cLqDtki60Nd9rSZ_-44" value="" style="group" connectable="0" vertex="1" parent="WIyWlLk6GJQsqaUBKTNV-1">
          <mxGeometry x="470" y="339" width="30" height="90" as="geometry" />
        </mxCell>
        <mxCell id="bgD5cLqDtki60Nd9rSZ_-45" value="" style="endArrow=none;html=1;rounded=0;" edge="1" parent="bgD5cLqDtki60Nd9rSZ_-44">
          <mxGeometry width="50" height="50" relative="1" as="geometry">
            <mxPoint x="15" y="40" as="sourcePoint" />
            <mxPoint x="15" as="targetPoint" />
          </mxGeometry>
        </mxCell>
        <mxCell id="bgD5cLqDtki60Nd9rSZ_-46" value="" style="rounded=0;whiteSpace=wrap;html=1;direction=south;" vertex="1" parent="bgD5cLqDtki60Nd9rSZ_-44">
          <mxGeometry y="40" width="30" height="50" as="geometry" />
        </mxCell>
        <mxCell id="bgD5cLqDtki60Nd9rSZ_-47" value="" style="group" connectable="0" vertex="1" parent="WIyWlLk6GJQsqaUBKTNV-1">
          <mxGeometry x="390" y="340" width="30" height="90" as="geometry" />
        </mxCell>
        <mxCell id="bgD5cLqDtki60Nd9rSZ_-48" value="" style="endArrow=none;html=1;rounded=0;" edge="1" parent="bgD5cLqDtki60Nd9rSZ_-47">
          <mxGeometry width="50" height="50" relative="1" as="geometry">
            <mxPoint x="15" y="40" as="sourcePoint" />
            <mxPoint x="15" as="targetPoint" />
          </mxGeometry>
        </mxCell>
        <mxCell id="bgD5cLqDtki60Nd9rSZ_-49" value="" style="rounded=0;whiteSpace=wrap;html=1;direction=south;" vertex="1" parent="bgD5cLqDtki60Nd9rSZ_-47">
          <mxGeometry y="40" width="30" height="50" as="geometry" />
        </mxCell>
        <mxCell id="bgD5cLqDtki60Nd9rSZ_-50" value="" style="group" connectable="0" vertex="1" parent="WIyWlLk6GJQsqaUBKTNV-1">
          <mxGeometry x="550" y="340" width="30" height="90" as="geometry" />
        </mxCell>
        <mxCell id="bgD5cLqDtki60Nd9rSZ_-51" value="" style="endArrow=none;html=1;rounded=0;" edge="1" parent="bgD5cLqDtki60Nd9rSZ_-50">
          <mxGeometry width="50" height="50" relative="1" as="geometry">
            <mxPoint x="15" y="40" as="sourcePoint" />
            <mxPoint x="15" as="targetPoint" />
          </mxGeometry>
        </mxCell>
        <mxCell id="bgD5cLqDtki60Nd9rSZ_-52" value="" style="rounded=0;whiteSpace=wrap;html=1;direction=south;" vertex="1" parent="bgD5cLqDtki60Nd9rSZ_-50">
          <mxGeometry y="40" width="30" height="50" as="geometry" />
        </mxCell>
        <mxCell id="bgD5cLqDtki60Nd9rSZ_-53" value="" style="group" connectable="0" vertex="1" parent="WIyWlLk6GJQsqaUBKTNV-1">
          <mxGeometry x="640" y="528" width="30" height="90" as="geometry" />
        </mxCell>
        <mxCell id="bgD5cLqDtki60Nd9rSZ_-54" value="" style="endArrow=none;html=1;rounded=0;" edge="1" parent="bgD5cLqDtki60Nd9rSZ_-53">
          <mxGeometry width="50" height="50" relative="1" as="geometry">
            <mxPoint x="15" y="40" as="sourcePoint" />
            <mxPoint x="15" as="targetPoint" />
          </mxGeometry>
        </mxCell>
        <mxCell id="bgD5cLqDtki60Nd9rSZ_-55" value="" style="rounded=0;whiteSpace=wrap;html=1;direction=south;" vertex="1" parent="bgD5cLqDtki60Nd9rSZ_-53">
          <mxGeometry y="40" width="30" height="50" as="geometry" />
        </mxCell>
        <mxCell id="bgD5cLqDtki60Nd9rSZ_-56" value="" style="group" connectable="0" vertex="1" parent="WIyWlLk6GJQsqaUBKTNV-1">
          <mxGeometry x="715" y="528" width="30" height="90" as="geometry" />
        </mxCell>
        <mxCell id="bgD5cLqDtki60Nd9rSZ_-57" value="" style="endArrow=none;html=1;rounded=0;" edge="1" parent="bgD5cLqDtki60Nd9rSZ_-56">
          <mxGeometry width="50" height="50" relative="1" as="geometry">
            <mxPoint x="15" y="40" as="sourcePoint" />
            <mxPoint x="15" as="targetPoint" />
          </mxGeometry>
        </mxCell>
        <mxCell id="bgD5cLqDtki60Nd9rSZ_-58" value="" style="rounded=0;whiteSpace=wrap;html=1;direction=south;" vertex="1" parent="bgD5cLqDtki60Nd9rSZ_-56">
          <mxGeometry y="40" width="30" height="50" as="geometry" />
        </mxCell>
        <mxCell id="bgD5cLqDtki60Nd9rSZ_-59" value="" style="group" connectable="0" vertex="1" parent="WIyWlLk6GJQsqaUBKTNV-1">
          <mxGeometry x="790" y="530" width="30" height="90" as="geometry" />
        </mxCell>
        <mxCell id="bgD5cLqDtki60Nd9rSZ_-60" value="" style="endArrow=none;html=1;rounded=0;" edge="1" parent="bgD5cLqDtki60Nd9rSZ_-59">
          <mxGeometry width="50" height="50" relative="1" as="geometry">
            <mxPoint x="16" y="37" as="sourcePoint" />
            <mxPoint x="16" y="-3" as="targetPoint" />
          </mxGeometry>
        </mxCell>
        <mxCell id="bgD5cLqDtki60Nd9rSZ_-61" value="" style="rounded=0;whiteSpace=wrap;html=1;direction=south;" vertex="1" parent="bgD5cLqDtki60Nd9rSZ_-59">
          <mxGeometry x="2" y="38" width="30" height="50" as="geometry" />
        </mxCell>
        <mxCell id="bgD5cLqDtki60Nd9rSZ_-78" value="" style="group" connectable="0" vertex="1" parent="WIyWlLk6GJQsqaUBKTNV-1">
          <mxGeometry x="-290" y="160" width="290" height="281" as="geometry" />
        </mxCell>
        <mxCell id="bgD5cLqDtki60Nd9rSZ_-3" value="" style="group" connectable="0" vertex="1" parent="bgD5cLqDtki60Nd9rSZ_-78">
          <mxGeometry x="62" y="190" width="30" height="90" as="geometry" />
        </mxCell>
        <mxCell id="bgD5cLqDtki60Nd9rSZ_-1" value="" style="endArrow=none;html=1;rounded=0;" edge="1" parent="bgD5cLqDtki60Nd9rSZ_-3">
          <mxGeometry width="50" height="50" relative="1" as="geometry">
            <mxPoint x="15" y="40" as="sourcePoint" />
            <mxPoint x="15" as="targetPoint" />
          </mxGeometry>
        </mxCell>
        <mxCell id="bgD5cLqDtki60Nd9rSZ_-2" value="" style="rounded=0;whiteSpace=wrap;html=1;direction=south;" vertex="1" parent="bgD5cLqDtki60Nd9rSZ_-3">
          <mxGeometry y="40" width="30" height="50" as="geometry" />
        </mxCell>
        <mxCell id="bgD5cLqDtki60Nd9rSZ_-5" value="" style="group" connectable="0" vertex="1" parent="bgD5cLqDtki60Nd9rSZ_-78">
          <mxGeometry x="160" y="191" width="30" height="90" as="geometry" />
        </mxCell>
        <mxCell id="bgD5cLqDtki60Nd9rSZ_-6" value="" style="endArrow=none;html=1;rounded=0;" edge="1" parent="bgD5cLqDtki60Nd9rSZ_-5">
          <mxGeometry width="50" height="50" relative="1" as="geometry">
            <mxPoint x="15" y="40" as="sourcePoint" />
            <mxPoint x="15" as="targetPoint" />
          </mxGeometry>
        </mxCell>
        <mxCell id="bgD5cLqDtki60Nd9rSZ_-7" value="" style="rounded=0;whiteSpace=wrap;html=1;direction=south;" vertex="1" parent="bgD5cLqDtki60Nd9rSZ_-5">
          <mxGeometry y="40" width="30" height="50" as="geometry" />
        </mxCell>
        <mxCell id="bgD5cLqDtki60Nd9rSZ_-11" value="" style="group" connectable="0" vertex="1" parent="bgD5cLqDtki60Nd9rSZ_-78">
          <mxGeometry x="240" y="191" width="30" height="90" as="geometry" />
        </mxCell>
        <mxCell id="bgD5cLqDtki60Nd9rSZ_-12" value="" style="endArrow=none;html=1;rounded=0;" edge="1" parent="bgD5cLqDtki60Nd9rSZ_-11">
          <mxGeometry width="50" height="50" relative="1" as="geometry">
            <mxPoint x="15" y="40" as="sourcePoint" />
            <mxPoint x="15" as="targetPoint" />
          </mxGeometry>
        </mxCell>
        <mxCell id="bgD5cLqDtki60Nd9rSZ_-13" value="" style="rounded=0;whiteSpace=wrap;html=1;direction=south;" vertex="1" parent="bgD5cLqDtki60Nd9rSZ_-11">
          <mxGeometry y="40" width="30" height="50" as="geometry" />
        </mxCell>
        <mxCell id="2iRlPU97kEJJlgAq3W9q-51" value="" style="group" connectable="0" vertex="1" parent="bgD5cLqDtki60Nd9rSZ_-78">
          <mxGeometry x="125" width="120" height="50" as="geometry" />
        </mxCell>
        <object label="" id="2iRlPU97kEJJlgAq3W9q-4">
          <mxCell style="ellipse;whiteSpace=wrap;html=1;points=[[0,0,0,0,0],[0,0.5,0,0,0],[0,1,0,0,0],[0.5,0,0,0,0],[0.5,1,0,0,0],[1,0,0,0,0],[1,0.5,0,0,0],[1,1,0,0,0]];" vertex="1" parent="2iRlPU97kEJJlgAq3W9q-51">
            <mxGeometry width="120" height="50" as="geometry" />
          </mxCell>
        </object>
        <mxCell id="2iRlPU97kEJJlgAq3W9q-16" value="&lt;h1&gt;&lt;font style=&quot;font-size: 11px; font-weight: normal;&quot;&gt;Fesztivál&lt;/font&gt;&lt;/h1&gt;" style="text;html=1;strokeColor=none;fillColor=none;spacing=5;spacingTop=-20;whiteSpace=wrap;overflow=hidden;rounded=0;" vertex="1" parent="2iRlPU97kEJJlgAq3W9q-51">
          <mxGeometry x="30" y="2" width="60" height="40" as="geometry" />
        </mxCell>
        <mxCell id="2iRlPU97kEJJlgAq3W9q-57" value="" style="endArrow=none;html=1;rounded=0;entryX=0.183;entryY=0.86;entryDx=0;entryDy=0;entryPerimeter=0;exitX=1;exitY=0.5;exitDx=0;exitDy=0;" edge="1" parent="bgD5cLqDtki60Nd9rSZ_-78" source="2iRlPU97kEJJlgAq3W9q-29" target="2iRlPU97kEJJlgAq3W9q-4">
          <mxGeometry width="50" height="50" relative="1" as="geometry">
            <mxPoint x="109" y="85" as="sourcePoint" />
            <mxPoint x="168" y="84" as="targetPoint" />
          </mxGeometry>
        </mxCell>
        <mxCell id="2iRlPU97kEJJlgAq3W9q-61" value="" style="endArrow=none;html=1;rounded=0;exitX=1;exitY=0.5;exitDx=0;exitDy=0;" edge="1" parent="bgD5cLqDtki60Nd9rSZ_-78" source="2iRlPU97kEJJlgAq3W9q-78">
          <mxGeometry width="50" height="50" relative="1" as="geometry">
            <mxPoint x="56" y="85" as="sourcePoint" />
            <mxPoint x="160" y="51" as="targetPoint" />
          </mxGeometry>
        </mxCell>
        <mxCell id="2iRlPU97kEJJlgAq3W9q-62" value="" style="endArrow=none;html=1;rounded=0;" edge="1" parent="bgD5cLqDtki60Nd9rSZ_-78" source="2iRlPU97kEJJlgAq3W9q-72">
          <mxGeometry width="50" height="50" relative="1" as="geometry">
            <mxPoint x="118" y="105" as="sourcePoint" />
            <mxPoint x="180" y="51" as="targetPoint" />
          </mxGeometry>
        </mxCell>
        <mxCell id="2iRlPU97kEJJlgAq3W9q-63" value="" style="endArrow=none;html=1;rounded=0;exitX=0;exitY=0.25;exitDx=0;exitDy=0;" edge="1" parent="bgD5cLqDtki60Nd9rSZ_-78" source="2iRlPU97kEJJlgAq3W9q-44">
          <mxGeometry width="50" height="50" relative="1" as="geometry">
            <mxPoint x="210" y="101" as="sourcePoint" />
            <mxPoint x="200" y="51" as="targetPoint" />
          </mxGeometry>
        </mxCell>
        <mxCell id="2iRlPU97kEJJlgAq3W9q-66" value="" style="group" connectable="0" vertex="1" parent="bgD5cLqDtki60Nd9rSZ_-78">
          <mxGeometry y="71" width="64.5" height="68" as="geometry" />
        </mxCell>
        <mxCell id="2iRlPU97kEJJlgAq3W9q-29" value="" style="rhombus;whiteSpace=wrap;html=1;" vertex="1" parent="2iRlPU97kEJJlgAq3W9q-66">
          <mxGeometry width="60" height="68" as="geometry" />
        </mxCell>
        <mxCell id="2iRlPU97kEJJlgAq3W9q-30" value="&lt;h1 style=&quot;font-size: 10px;&quot;&gt;&lt;span style=&quot;font-size: 10px; font-weight: 400;&quot;&gt;&lt;u&gt;FESZ_ID&lt;/u&gt;&lt;/span&gt;&lt;/h1&gt;" style="text;html=1;strokeColor=none;fillColor=none;spacing=5;spacingTop=-20;whiteSpace=wrap;overflow=hidden;rounded=0;fontSize=10;" vertex="1" parent="2iRlPU97kEJJlgAq3W9q-66">
          <mxGeometry x="2.5" y="32" width="62" height="8" as="geometry" />
        </mxCell>
        <mxCell id="2iRlPU97kEJJlgAq3W9q-73" value="" style="group" connectable="0" vertex="1" parent="bgD5cLqDtki60Nd9rSZ_-78">
          <mxGeometry x="220" y="151" width="70" height="39" as="geometry" />
        </mxCell>
        <object label="" id="2iRlPU97kEJJlgAq3W9q-42">
          <mxCell style="ellipse;whiteSpace=wrap;html=1;points=[[0,0,0,0,0],[0,0.5,0,0,0],[0,1,0,0,0],[0.5,0,0,0,0],[0.5,1,0,0,0],[1,0,0,0,0],[1,0.5,0,0,0],[1,1,0,0,0]];" vertex="1" parent="2iRlPU97kEJJlgAq3W9q-73">
            <mxGeometry y="9" width="70" height="30" as="geometry" />
          </mxCell>
        </object>
        <mxCell id="2iRlPU97kEJJlgAq3W9q-44" value="&lt;h1&gt;&lt;span style=&quot;font-size: 11px; font-weight: 400;&quot;&gt;év&lt;/span&gt;&lt;/h1&gt;" style="text;html=1;strokeColor=none;fillColor=none;spacing=5;spacingTop=-20;whiteSpace=wrap;overflow=hidden;rounded=0;" vertex="1" parent="2iRlPU97kEJJlgAq3W9q-73">
          <mxGeometry x="22.5" width="25" height="37" as="geometry" />
        </mxCell>
        <mxCell id="2iRlPU97kEJJlgAq3W9q-79" value="" style="group" connectable="0" vertex="1" parent="bgD5cLqDtki60Nd9rSZ_-78">
          <mxGeometry x="40" y="151" width="70" height="39" as="geometry" />
        </mxCell>
        <object label="" id="2iRlPU97kEJJlgAq3W9q-74">
          <mxCell style="ellipse;whiteSpace=wrap;html=1;points=[[0,0,0,0,0],[0,0.5,0,0,0],[0,1,0,0,0],[0.5,0,0,0,0],[0.5,1,0,0,0],[1,0,0,0,0],[1,0.5,0,0,0],[1,1,0,0,0]];" vertex="1" parent="2iRlPU97kEJJlgAq3W9q-79">
            <mxGeometry y="9" width="70" height="30" as="geometry" />
          </mxCell>
        </object>
        <mxCell id="2iRlPU97kEJJlgAq3W9q-78" value="&lt;h1&gt;&lt;span style=&quot;font-size: 11px; font-weight: 400;&quot;&gt;név&lt;/span&gt;&lt;/h1&gt;&lt;div&gt;&lt;span style=&quot;font-size: 11px; font-weight: 400;&quot;&gt;&lt;br&gt;&lt;/span&gt;&lt;/div&gt;" style="text;html=1;strokeColor=none;fillColor=none;spacing=5;spacingTop=-20;whiteSpace=wrap;overflow=hidden;rounded=0;" vertex="1" parent="2iRlPU97kEJJlgAq3W9q-79">
          <mxGeometry x="20.5" width="29.5" height="37" as="geometry" />
        </mxCell>
        <mxCell id="2iRlPU97kEJJlgAq3W9q-80" value="" style="group" connectable="0" vertex="1" parent="bgD5cLqDtki60Nd9rSZ_-78">
          <mxGeometry x="138.75" y="150" width="70" height="40" as="geometry" />
        </mxCell>
        <object label="" id="2iRlPU97kEJJlgAq3W9q-71">
          <mxCell style="ellipse;whiteSpace=wrap;html=1;points=[[0,0,0,0,0],[0,0.5,0,0,0],[0,1,0,0,0],[0.5,0,0,0,0],[0.5,1,0,0,0],[1,0,0,0,0],[1,0.5,0,0,0],[1,1,0,0,0]];" vertex="1" parent="2iRlPU97kEJJlgAq3W9q-80">
            <mxGeometry y="10" width="70" height="30" as="geometry" />
          </mxCell>
        </object>
        <mxCell id="2iRlPU97kEJJlgAq3W9q-72" value="&lt;h1&gt;&lt;span style=&quot;font-size: 11px; font-weight: 400;&quot;&gt;helyszín&lt;/span&gt;&lt;/h1&gt;" style="text;html=1;strokeColor=none;fillColor=none;spacing=5;spacingTop=-20;whiteSpace=wrap;overflow=hidden;rounded=0;" vertex="1" parent="2iRlPU97kEJJlgAq3W9q-80">
          <mxGeometry x="11.25" y="4.5" width="47.5" height="30" as="geometry" />
        </mxCell>
        <mxCell id="bgD5cLqDtki60Nd9rSZ_-321" value="" style="endArrow=block;dashed=1;endFill=0;endSize=12;html=1;rounded=0;entryX=0.5;entryY=1;entryDx=0;entryDy=0;" edge="1" parent="bgD5cLqDtki60Nd9rSZ_-78">
          <mxGeometry width="160" relative="1" as="geometry">
            <mxPoint y="340" as="sourcePoint" />
            <mxPoint y="105" as="targetPoint" />
          </mxGeometry>
        </mxCell>
        <mxCell id="2iRlPU97kEJJlgAq3W9q-95" value="" style="group" connectable="0" vertex="1" parent="WIyWlLk6GJQsqaUBKTNV-1">
          <mxGeometry x="200" y="300" width="70" height="39" as="geometry" />
        </mxCell>
        <object label="" id="2iRlPU97kEJJlgAq3W9q-96">
          <mxCell style="ellipse;whiteSpace=wrap;html=1;points=[[0,0,0,0,0],[0,0.5,0,0,0],[0,1,0,0,0],[0.5,0,0,0,0],[0.5,1,0,0,0],[1,0,0,0,0],[1,0.5,0,0,0],[1,1,0,0,0]];" vertex="1" parent="2iRlPU97kEJJlgAq3W9q-95">
            <mxGeometry y="9" width="70" height="30" as="geometry" />
          </mxCell>
        </object>
        <mxCell id="2iRlPU97kEJJlgAq3W9q-97" value="&lt;h1&gt;&lt;span style=&quot;font-size: 11px; font-weight: 400;&quot;&gt;díj&lt;/span&gt;&lt;/h1&gt;&lt;div&gt;&lt;span style=&quot;font-size: 11px; font-weight: 400;&quot;&gt;&lt;br&gt;&lt;/span&gt;&lt;/div&gt;" style="text;html=1;strokeColor=none;fillColor=none;spacing=5;spacingTop=-20;whiteSpace=wrap;overflow=hidden;rounded=0;" vertex="1" parent="2iRlPU97kEJJlgAq3W9q-95">
          <mxGeometry x="22.5" width="25" height="37" as="geometry" />
        </mxCell>
        <mxCell id="2iRlPU97kEJJlgAq3W9q-98" value="" style="group" connectable="0" vertex="1" parent="WIyWlLk6GJQsqaUBKTNV-1">
          <mxGeometry x="40" y="310" width="70" height="39" as="geometry" />
        </mxCell>
        <object label="" id="2iRlPU97kEJJlgAq3W9q-99">
          <mxCell style="ellipse;whiteSpace=wrap;html=1;points=[[0,0,0,0,0],[0,0.5,0,0,0],[0,1,0,0,0],[0.5,0,0,0,0],[0.5,1,0,0,0],[1,0,0,0,0],[1,0.5,0,0,0],[1,1,0,0,0]];" vertex="1" parent="2iRlPU97kEJJlgAq3W9q-98">
            <mxGeometry y="1" width="70" height="30" as="geometry" />
          </mxCell>
        </object>
        <mxCell id="2iRlPU97kEJJlgAq3W9q-100" value="&lt;h1&gt;&lt;span style=&quot;font-size: 11px; font-weight: 400;&quot;&gt;név&lt;/span&gt;&lt;/h1&gt;&lt;div&gt;&lt;span style=&quot;font-size: 11px; font-weight: 400;&quot;&gt;&lt;br&gt;&lt;/span&gt;&lt;/div&gt;" style="text;html=1;strokeColor=none;fillColor=none;spacing=5;spacingTop=-20;whiteSpace=wrap;overflow=hidden;rounded=0;" vertex="1" parent="2iRlPU97kEJJlgAq3W9q-98">
          <mxGeometry x="20.5" y="-6" width="29.5" height="37" as="geometry" />
        </mxCell>
        <mxCell id="2iRlPU97kEJJlgAq3W9q-105" value="" style="group" connectable="0" vertex="1" parent="WIyWlLk6GJQsqaUBKTNV-1">
          <mxGeometry x="119" y="301" width="70" height="40" as="geometry" />
        </mxCell>
        <object label="" id="2iRlPU97kEJJlgAq3W9q-102">
          <mxCell style="ellipse;whiteSpace=wrap;html=1;points=[[0,0,0,0,0],[0,0.5,0,0,0],[0,1,0,0,0],[0.5,0,0,0,0],[0.5,1,0,0,0],[1,0,0,0,0],[1,0.5,0,0,0],[1,1,0,0,0]];" vertex="1" parent="2iRlPU97kEJJlgAq3W9q-105">
            <mxGeometry y="10" width="70" height="30" as="geometry" />
          </mxCell>
        </object>
        <mxCell id="2iRlPU97kEJJlgAq3W9q-103" value="&lt;h1&gt;&lt;span style=&quot;font-size: 11px; font-weight: 400;&quot;&gt;ország&lt;/span&gt;&lt;/h1&gt;" style="text;html=1;strokeColor=none;fillColor=none;spacing=5;spacingTop=-20;whiteSpace=wrap;overflow=hidden;rounded=0;" vertex="1" parent="2iRlPU97kEJJlgAq3W9q-105">
          <mxGeometry x="11.25" width="47.5" height="40" as="geometry" />
        </mxCell>
        <mxCell id="2iRlPU97kEJJlgAq3W9q-106" value="" style="group" connectable="0" vertex="1" parent="WIyWlLk6GJQsqaUBKTNV-1">
          <mxGeometry y="122" width="64.5" height="68" as="geometry" />
        </mxCell>
        <mxCell id="2iRlPU97kEJJlgAq3W9q-107" value="" style="rhombus;whiteSpace=wrap;html=1;" vertex="1" parent="2iRlPU97kEJJlgAq3W9q-106">
          <mxGeometry width="60" height="68" as="geometry" />
        </mxCell>
        <mxCell id="2iRlPU97kEJJlgAq3W9q-108" value="&lt;h1 style=&quot;font-size: 10px;&quot;&gt;&lt;span style=&quot;font-size: 10px; font-weight: 400;&quot;&gt;&lt;u&gt;FEL_ID&lt;/u&gt;&lt;/span&gt;&lt;/h1&gt;" style="text;html=1;strokeColor=none;fillColor=none;spacing=5;spacingTop=-20;whiteSpace=wrap;overflow=hidden;rounded=0;fontSize=10;" vertex="1" parent="2iRlPU97kEJJlgAq3W9q-106">
          <mxGeometry x="2.5" y="32" width="57.5" height="8" as="geometry" />
        </mxCell>
        <mxCell id="2iRlPU97kEJJlgAq3W9q-110" value="" style="endArrow=none;html=1;rounded=0;exitX=0.933;exitY=0.618;exitDx=0;exitDy=0;entryX=0.03;entryY=0.283;entryDx=0;entryDy=0;entryPerimeter=0;exitPerimeter=0;" edge="1" parent="WIyWlLk6GJQsqaUBKTNV-1" source="2iRlPU97kEJJlgAq3W9q-107" target="bgD5cLqDtki60Nd9rSZ_-83">
          <mxGeometry width="50" height="50" relative="1" as="geometry">
            <mxPoint x="50" y="260" as="sourcePoint" />
            <mxPoint x="102.55550041158676" y="168.65800569732437" as="targetPoint" />
          </mxGeometry>
        </mxCell>
        <mxCell id="2iRlPU97kEJJlgAq3W9q-111" value="" style="endArrow=none;html=1;rounded=0;entryX=0;entryY=1;entryDx=0;entryDy=0;" edge="1" parent="WIyWlLk6GJQsqaUBKTNV-1" target="bgD5cLqDtki60Nd9rSZ_-83">
          <mxGeometry width="50" height="50" relative="1" as="geometry">
            <mxPoint x="70" y="310" as="sourcePoint" />
            <mxPoint x="127.67399999999998" y="208.92000000000007" as="targetPoint" />
          </mxGeometry>
        </mxCell>
        <mxCell id="2iRlPU97kEJJlgAq3W9q-112" value="" style="endArrow=none;html=1;rounded=0;entryX=0.317;entryY=0.96;entryDx=0;entryDy=0;entryPerimeter=0;" edge="1" parent="WIyWlLk6GJQsqaUBKTNV-1">
          <mxGeometry width="50" height="50" relative="1" as="geometry">
            <mxPoint x="150" y="310" as="sourcePoint" />
            <mxPoint x="154" y="210" as="targetPoint" />
          </mxGeometry>
        </mxCell>
        <mxCell id="2iRlPU97kEJJlgAq3W9q-113" value="" style="endArrow=none;html=1;rounded=0;entryX=0.317;entryY=0.96;entryDx=0;entryDy=0;entryPerimeter=0;exitX=0;exitY=0.25;exitDx=0;exitDy=0;" edge="1" parent="WIyWlLk6GJQsqaUBKTNV-1" source="2iRlPU97kEJJlgAq3W9q-97">
          <mxGeometry width="50" height="50" relative="1" as="geometry">
            <mxPoint x="170" y="297.5" as="sourcePoint" />
            <mxPoint x="182" y="206.5" as="targetPoint" />
          </mxGeometry>
        </mxCell>
        <mxCell id="bgD5cLqDtki60Nd9rSZ_-80" value="" style="rhombus;whiteSpace=wrap;html=1;" vertex="1" parent="WIyWlLk6GJQsqaUBKTNV-1">
          <mxGeometry y="200" width="60" height="68" as="geometry" />
        </mxCell>
        <mxCell id="bgD5cLqDtki60Nd9rSZ_-81" value="&lt;h1 style=&quot;font-size: 10px;&quot;&gt;&lt;span style=&quot;font-size: 10px; font-weight: 400;&quot;&gt;&lt;u&gt;FEL_FESZ&lt;/u&gt;&lt;/span&gt;&lt;/h1&gt;" style="text;html=1;strokeColor=none;fillColor=none;spacing=5;spacingTop=-20;whiteSpace=wrap;overflow=hidden;rounded=0;fontSize=10;" vertex="1" parent="WIyWlLk6GJQsqaUBKTNV-1">
          <mxGeometry x="3" y="232" width="57.5" height="8" as="geometry" />
        </mxCell>
        <mxCell id="bgD5cLqDtki60Nd9rSZ_-84" value="" style="endArrow=none;html=1;rounded=0;entryX=0.25;entryY=0.92;entryDx=0;entryDy=0;entryPerimeter=0;" edge="1" parent="WIyWlLk6GJQsqaUBKTNV-1" target="bgD5cLqDtki60Nd9rSZ_-83">
          <mxGeometry width="50" height="50" relative="1" as="geometry">
            <mxPoint x="172.2823920541182" y="160.7967120791468" as="sourcePoint" />
            <mxPoint x="324" y="-4" as="targetPoint" />
          </mxGeometry>
        </mxCell>
        <mxCell id="bgD5cLqDtki60Nd9rSZ_-83" value="" style="ellipse;shape=doubleEllipse;whiteSpace=wrap;html=1;" vertex="1" parent="WIyWlLk6GJQsqaUBKTNV-1">
          <mxGeometry x="105" y="154" width="100" height="60" as="geometry" />
        </mxCell>
        <mxCell id="bgD5cLqDtki60Nd9rSZ_-86" value="&lt;h1&gt;&lt;font style=&quot;font-size: 11px; font-weight: normal;&quot;&gt;Fellépő&lt;/font&gt;&lt;/h1&gt;" style="text;html=1;strokeColor=none;fillColor=none;spacing=5;spacingTop=-20;whiteSpace=wrap;overflow=hidden;rounded=0;" vertex="1" parent="WIyWlLk6GJQsqaUBKTNV-1">
          <mxGeometry x="129" y="160" width="60" height="40" as="geometry" />
        </mxCell>
        <mxCell id="bgD5cLqDtki60Nd9rSZ_-87" value="" style="endArrow=none;html=1;rounded=0;exitX=1;exitY=0.5;exitDx=0;exitDy=0;entryX=0;entryY=0.5;entryDx=0;entryDy=0;" edge="1" parent="WIyWlLk6GJQsqaUBKTNV-1" source="bgD5cLqDtki60Nd9rSZ_-80" target="bgD5cLqDtki60Nd9rSZ_-83">
          <mxGeometry width="50" height="50" relative="1" as="geometry">
            <mxPoint x="42" y="190" as="sourcePoint" />
            <mxPoint x="90" y="201" as="targetPoint" />
          </mxGeometry>
        </mxCell>
        <mxCell id="2iRlPU97kEJJlgAq3W9q-53" value="" style="group" connectable="0" vertex="1" parent="WIyWlLk6GJQsqaUBKTNV-1">
          <mxGeometry x="330" y="160" width="120" height="50" as="geometry" />
        </mxCell>
        <object label="" id="2iRlPU97kEJJlgAq3W9q-8">
          <mxCell style="ellipse;whiteSpace=wrap;html=1;points=[[0,0,0,0,0],[0,0.5,0,0,0],[0,1,0,0,0],[0.5,0,0,0,0],[0.5,1,0,0,0],[1,0,0,0,0],[1,0.5,0,0,0],[1,1,0,0,0]];" vertex="1" parent="2iRlPU97kEJJlgAq3W9q-53">
            <mxGeometry width="120" height="50" as="geometry" />
          </mxCell>
        </object>
        <mxCell id="2iRlPU97kEJJlgAq3W9q-18" value="&lt;h1&gt;&lt;font style=&quot;font-size: 11px; font-weight: normal;&quot;&gt;Tulajdonos&lt;/font&gt;&lt;/h1&gt;" style="text;html=1;strokeColor=none;fillColor=none;spacing=5;spacingTop=-20;whiteSpace=wrap;overflow=hidden;rounded=0;" vertex="1" parent="2iRlPU97kEJJlgAq3W9q-53">
          <mxGeometry x="24.5" y="3" width="71" height="40" as="geometry" />
        </mxCell>
        <mxCell id="2iRlPU97kEJJlgAq3W9q-124" value="" style="group" connectable="0" vertex="1" parent="WIyWlLk6GJQsqaUBKTNV-1">
          <mxGeometry x="250" y="110" width="64.5" height="68" as="geometry" />
        </mxCell>
        <mxCell id="2iRlPU97kEJJlgAq3W9q-125" value="" style="rhombus;whiteSpace=wrap;html=1;" vertex="1" parent="2iRlPU97kEJJlgAq3W9q-124">
          <mxGeometry width="60" height="68" as="geometry" />
        </mxCell>
        <mxCell id="2iRlPU97kEJJlgAq3W9q-126" value="&lt;h1 style=&quot;font-size: 10px;&quot;&gt;&lt;span style=&quot;font-size: 10px; font-weight: 400;&quot;&gt;&lt;u&gt;T_ID&lt;/u&gt;&lt;/span&gt;&lt;/h1&gt;" style="text;html=1;strokeColor=none;fillColor=none;spacing=5;spacingTop=-20;whiteSpace=wrap;overflow=hidden;rounded=0;fontSize=10;" vertex="1" parent="2iRlPU97kEJJlgAq3W9q-124">
          <mxGeometry x="13" y="30" width="33.75" height="8" as="geometry" />
        </mxCell>
        <mxCell id="2iRlPU97kEJJlgAq3W9q-131" value="" style="group" connectable="0" vertex="1" parent="WIyWlLk6GJQsqaUBKTNV-1">
          <mxGeometry x="290" y="301" width="70" height="39" as="geometry" />
        </mxCell>
        <object label="" id="2iRlPU97kEJJlgAq3W9q-132">
          <mxCell style="ellipse;whiteSpace=wrap;html=1;points=[[0,0,0,0,0],[0,0.5,0,0,0],[0,1,0,0,0],[0.5,0,0,0,0],[0.5,1,0,0,0],[1,0,0,0,0],[1,0.5,0,0,0],[1,1,0,0,0]];" vertex="1" parent="2iRlPU97kEJJlgAq3W9q-131">
            <mxGeometry y="9" width="70" height="30" as="geometry" />
          </mxCell>
        </object>
        <mxCell id="2iRlPU97kEJJlgAq3W9q-133" value="&lt;h1&gt;&lt;span style=&quot;font-size: 11px; font-weight: 400;&quot;&gt;név&lt;/span&gt;&lt;/h1&gt;" style="text;html=1;strokeColor=none;fillColor=none;spacing=5;spacingTop=-20;whiteSpace=wrap;overflow=hidden;rounded=0;" vertex="1" parent="2iRlPU97kEJJlgAq3W9q-131">
          <mxGeometry x="21.5" y="-1" width="25" height="37" as="geometry" />
        </mxCell>
        <mxCell id="2iRlPU97kEJJlgAq3W9q-135" value="" style="group" connectable="0" vertex="1" parent="WIyWlLk6GJQsqaUBKTNV-1">
          <mxGeometry x="370" y="302" width="70" height="39" as="geometry" />
        </mxCell>
        <object label="" id="2iRlPU97kEJJlgAq3W9q-136">
          <mxCell style="ellipse;whiteSpace=wrap;html=1;points=[[0,0,0,0,0],[0,0.5,0,0,0],[0,1,0,0,0],[0.5,0,0,0,0],[0.5,1,0,0,0],[1,0,0,0,0],[1,0.5,0,0,0],[1,1,0,0,0]];" vertex="1" parent="2iRlPU97kEJJlgAq3W9q-135">
            <mxGeometry y="9" width="70" height="30" as="geometry" />
          </mxCell>
        </object>
        <mxCell id="2iRlPU97kEJJlgAq3W9q-137" value="&lt;h1&gt;&lt;span style=&quot;font-size: 11px; font-weight: 400;&quot;&gt;adószám&lt;/span&gt;&lt;/h1&gt;" style="text;html=1;strokeColor=none;fillColor=none;spacing=5;spacingTop=-20;whiteSpace=wrap;overflow=hidden;rounded=0;" vertex="1" parent="2iRlPU97kEJJlgAq3W9q-135">
          <mxGeometry x="9" width="56.5" height="37" as="geometry" />
        </mxCell>
        <mxCell id="2iRlPU97kEJJlgAq3W9q-138" value="" style="group" connectable="0" vertex="1" parent="WIyWlLk6GJQsqaUBKTNV-1">
          <mxGeometry x="450" y="301" width="70" height="39" as="geometry" />
        </mxCell>
        <object label="" id="2iRlPU97kEJJlgAq3W9q-139">
          <mxCell style="ellipse;whiteSpace=wrap;html=1;points=[[0,0,0,0,0],[0,0.5,0,0,0],[0,1,0,0,0],[0.5,0,0,0,0],[0.5,1,0,0,0],[1,0,0,0,0],[1,0.5,0,0,0],[1,1,0,0,0]];" vertex="1" parent="2iRlPU97kEJJlgAq3W9q-138">
            <mxGeometry y="9" width="70" height="30" as="geometry" />
          </mxCell>
        </object>
        <mxCell id="2iRlPU97kEJJlgAq3W9q-140" value="&lt;h1&gt;&lt;span style=&quot;font-size: 11px; font-weight: 400;&quot;&gt;alapítás&lt;/span&gt;&lt;/h1&gt;" style="text;html=1;strokeColor=none;fillColor=none;spacing=5;spacingTop=-20;whiteSpace=wrap;overflow=hidden;rounded=0;" vertex="1" parent="2iRlPU97kEJJlgAq3W9q-138">
          <mxGeometry x="6.75" y="-1" width="56.5" height="37" as="geometry" />
        </mxCell>
        <mxCell id="2iRlPU97kEJJlgAq3W9q-141" value="" style="group" connectable="0" vertex="1" parent="WIyWlLk6GJQsqaUBKTNV-1">
          <mxGeometry x="530" y="302" width="70" height="39" as="geometry" />
        </mxCell>
        <object label="" id="2iRlPU97kEJJlgAq3W9q-142">
          <mxCell style="ellipse;whiteSpace=wrap;html=1;points=[[0,0,0,0,0],[0,0.5,0,0,0],[0,1,0,0,0],[0.5,0,0,0,0],[0.5,1,0,0,0],[1,0,0,0,0],[1,0.5,0,0,0],[1,1,0,0,0]];" vertex="1" parent="2iRlPU97kEJJlgAq3W9q-141">
            <mxGeometry y="9" width="70" height="30" as="geometry" />
          </mxCell>
        </object>
        <mxCell id="2iRlPU97kEJJlgAq3W9q-143" value="&lt;h1&gt;&lt;span style=&quot;font-size: 11px; font-weight: 400;&quot;&gt;bevétel&lt;/span&gt;&lt;/h1&gt;" style="text;html=1;strokeColor=none;fillColor=none;spacing=5;spacingTop=-20;whiteSpace=wrap;overflow=hidden;rounded=0;" vertex="1" parent="2iRlPU97kEJJlgAq3W9q-141">
          <mxGeometry x="13.5" y="-1" width="56.5" height="37" as="geometry" />
        </mxCell>
        <mxCell id="2iRlPU97kEJJlgAq3W9q-144" value="" style="endArrow=none;html=1;rounded=0;exitX=1;exitY=0.5;exitDx=0;exitDy=0;entryX=0.083;entryY=0.2;entryDx=0;entryDy=0;entryPerimeter=0;" edge="1" parent="WIyWlLk6GJQsqaUBKTNV-1" source="2iRlPU97kEJJlgAq3W9q-125" target="2iRlPU97kEJJlgAq3W9q-8">
          <mxGeometry width="50" height="50" relative="1" as="geometry">
            <mxPoint x="233" y="319" as="sourcePoint" />
            <mxPoint x="350" y="210" as="targetPoint" />
          </mxGeometry>
        </mxCell>
        <mxCell id="2iRlPU97kEJJlgAq3W9q-145" value="" style="endArrow=none;html=1;rounded=0;" edge="1" parent="WIyWlLk6GJQsqaUBKTNV-1">
          <mxGeometry width="50" height="50" relative="1" as="geometry">
            <mxPoint x="340" y="310" as="sourcePoint" />
            <mxPoint x="370" y="210" as="targetPoint" />
          </mxGeometry>
        </mxCell>
        <mxCell id="2iRlPU97kEJJlgAq3W9q-146" value="" style="endArrow=none;html=1;rounded=0;" edge="1" parent="WIyWlLk6GJQsqaUBKTNV-1">
          <mxGeometry width="50" height="50" relative="1" as="geometry">
            <mxPoint x="400" y="310" as="sourcePoint" />
            <mxPoint x="390" y="210" as="targetPoint" />
          </mxGeometry>
        </mxCell>
        <mxCell id="2iRlPU97kEJJlgAq3W9q-147" value="" style="endArrow=none;html=1;rounded=0;exitX=0;exitY=0.5;exitDx=0;exitDy=0;" edge="1" parent="WIyWlLk6GJQsqaUBKTNV-1" source="2iRlPU97kEJJlgAq3W9q-140">
          <mxGeometry width="50" height="50" relative="1" as="geometry">
            <mxPoint x="399" y="302" as="sourcePoint" />
            <mxPoint x="410" y="210" as="targetPoint" />
          </mxGeometry>
        </mxCell>
        <mxCell id="2iRlPU97kEJJlgAq3W9q-148" value="" style="endArrow=none;html=1;rounded=0;entryX=0.825;entryY=0.96;entryDx=0;entryDy=0;entryPerimeter=0;" edge="1" parent="WIyWlLk6GJQsqaUBKTNV-1" target="2iRlPU97kEJJlgAq3W9q-8">
          <mxGeometry width="50" height="50" relative="1" as="geometry">
            <mxPoint x="540" y="320" as="sourcePoint" />
            <mxPoint x="440" y="210" as="targetPoint" />
          </mxGeometry>
        </mxCell>
        <mxCell id="bgD5cLqDtki60Nd9rSZ_-89" value="" style="rhombus;whiteSpace=wrap;html=1;" vertex="1" parent="WIyWlLk6GJQsqaUBKTNV-1">
          <mxGeometry x="249.5" y="190" width="60" height="68" as="geometry" />
        </mxCell>
        <mxCell id="bgD5cLqDtki60Nd9rSZ_-90" value="&lt;h1 style=&quot;font-size: 10px;&quot;&gt;&lt;span style=&quot;font-size: 10px; font-weight: 400;&quot;&gt;&lt;u&gt;FESZ_T&lt;/u&gt;&lt;/span&gt;&lt;/h1&gt;" style="text;html=1;strokeColor=none;fillColor=none;spacing=5;spacingTop=-20;whiteSpace=wrap;overflow=hidden;rounded=0;fontSize=10;" vertex="1" parent="WIyWlLk6GJQsqaUBKTNV-1">
          <mxGeometry x="252.5" y="222" width="57.5" height="8" as="geometry" />
        </mxCell>
        <mxCell id="bgD5cLqDtki60Nd9rSZ_-91" value="" style="endArrow=none;html=1;rounded=0;exitX=1;exitY=0.5;exitDx=0;exitDy=0;entryX=0.033;entryY=0.68;entryDx=0;entryDy=0;entryPerimeter=0;" edge="1" parent="WIyWlLk6GJQsqaUBKTNV-1" source="bgD5cLqDtki60Nd9rSZ_-89" target="2iRlPU97kEJJlgAq3W9q-8">
          <mxGeometry width="50" height="50" relative="1" as="geometry">
            <mxPoint x="320" y="154" as="sourcePoint" />
            <mxPoint x="350" y="180" as="targetPoint" />
          </mxGeometry>
        </mxCell>
        <mxCell id="bgD5cLqDtki60Nd9rSZ_-92" value="" style="ellipse;shape=doubleEllipse;whiteSpace=wrap;html=1;" vertex="1" parent="WIyWlLk6GJQsqaUBKTNV-1">
          <mxGeometry x="670" y="150" width="100" height="60" as="geometry" />
        </mxCell>
        <mxCell id="bgD5cLqDtki60Nd9rSZ_-93" value="&lt;h1&gt;&lt;font style=&quot;font-size: 11px; font-weight: normal;&quot;&gt;Résztvevő&lt;/font&gt;&lt;/h1&gt;" style="text;html=1;strokeColor=none;fillColor=none;spacing=5;spacingTop=-20;whiteSpace=wrap;overflow=hidden;rounded=0;" vertex="1" parent="WIyWlLk6GJQsqaUBKTNV-1">
          <mxGeometry x="691" y="158" width="60" height="40" as="geometry" />
        </mxCell>
        <mxCell id="bgD5cLqDtki60Nd9rSZ_-101" value="" style="rhombus;whiteSpace=wrap;html=1;" vertex="1" parent="WIyWlLk6GJQsqaUBKTNV-1">
          <mxGeometry x="585.5" y="194" width="60" height="68" as="geometry" />
        </mxCell>
        <mxCell id="bgD5cLqDtki60Nd9rSZ_-102" value="&lt;h1 style=&quot;font-size: 10px;&quot;&gt;&lt;span style=&quot;font-size: 10px; font-weight: 400;&quot;&gt;&lt;u&gt;FESZ_R&lt;/u&gt;&lt;/span&gt;&lt;/h1&gt;" style="text;html=1;strokeColor=none;fillColor=none;spacing=5;spacingTop=-20;whiteSpace=wrap;overflow=hidden;rounded=0;fontSize=10;" vertex="1" parent="WIyWlLk6GJQsqaUBKTNV-1">
          <mxGeometry x="588.5" y="226" width="57.5" height="8" as="geometry" />
        </mxCell>
        <mxCell id="bgD5cLqDtki60Nd9rSZ_-103" value="" style="endArrow=none;html=1;rounded=0;exitX=1;exitY=0.5;exitDx=0;exitDy=0;" edge="1" parent="WIyWlLk6GJQsqaUBKTNV-1" source="bgD5cLqDtki60Nd9rSZ_-101" target="bgD5cLqDtki60Nd9rSZ_-92">
          <mxGeometry width="50" height="50" relative="1" as="geometry">
            <mxPoint x="656" y="158" as="sourcePoint" />
            <mxPoint x="679" y="202" as="targetPoint" />
          </mxGeometry>
        </mxCell>
        <mxCell id="bgD5cLqDtki60Nd9rSZ_-167" value="" style="group" connectable="0" vertex="1" parent="WIyWlLk6GJQsqaUBKTNV-1">
          <mxGeometry x="900.0000000000001" y="320" width="501.1199999999999" height="312" as="geometry" />
        </mxCell>
        <mxCell id="bgD5cLqDtki60Nd9rSZ_-106" value="" style="rhombus;whiteSpace=wrap;html=1;" vertex="1" parent="bgD5cLqDtki60Nd9rSZ_-167">
          <mxGeometry x="56.61999999999989" width="120" height="110" as="geometry" />
        </mxCell>
        <mxCell id="bgD5cLqDtki60Nd9rSZ_-110" value="" style="endArrow=none;html=1;rounded=0;exitX=1;exitY=0.5;exitDx=0;exitDy=0;entryX=0;entryY=1;entryDx=0;entryDy=0;" edge="1" parent="bgD5cLqDtki60Nd9rSZ_-167" source="bgD5cLqDtki60Nd9rSZ_-112" target="bgD5cLqDtki60Nd9rSZ_-106">
          <mxGeometry width="50" height="50" relative="1" as="geometry">
            <mxPoint x="46.86999999999989" y="132" as="sourcePoint" />
            <mxPoint x="87.61999999999989" y="80" as="targetPoint" />
          </mxGeometry>
        </mxCell>
        <mxCell id="bgD5cLqDtki60Nd9rSZ_-111" value="" style="group" connectable="0" vertex="1" parent="bgD5cLqDtki60Nd9rSZ_-167">
          <mxGeometry y="98.5" width="60" height="68" as="geometry" />
        </mxCell>
        <mxCell id="bgD5cLqDtki60Nd9rSZ_-112" value="" style="rhombus;whiteSpace=wrap;html=1;container=0;" vertex="1" parent="bgD5cLqDtki60Nd9rSZ_-111">
          <mxGeometry width="60" height="68" as="geometry" />
        </mxCell>
        <mxCell id="bgD5cLqDtki60Nd9rSZ_-113" value="&lt;h1 style=&quot;font-size: 10px;&quot;&gt;&lt;span style=&quot;font-size: 10px; font-weight: 400;&quot;&gt;&lt;u&gt;K_ID&lt;/u&gt;&lt;/span&gt;&lt;/h1&gt;" style="text;html=1;strokeColor=none;fillColor=none;spacing=5;spacingTop=-20;whiteSpace=wrap;overflow=hidden;rounded=0;fontSize=10;container=0;" vertex="1" parent="bgD5cLqDtki60Nd9rSZ_-111">
          <mxGeometry x="13.12" y="30" width="33.75" height="8" as="geometry" />
        </mxCell>
        <mxCell id="bgD5cLqDtki60Nd9rSZ_-114" value="" style="endArrow=none;html=1;rounded=0;entryX=0.5;entryY=1;entryDx=0;entryDy=0;" edge="1" parent="bgD5cLqDtki60Nd9rSZ_-167" target="bgD5cLqDtki60Nd9rSZ_-106">
          <mxGeometry width="50" height="50" relative="1" as="geometry">
            <mxPoint x="116.61999999999989" y="170" as="sourcePoint" />
            <mxPoint x="111.61999999999989" y="120" as="targetPoint" />
          </mxGeometry>
        </mxCell>
        <mxCell id="bgD5cLqDtki60Nd9rSZ_-115" value="" style="group" connectable="0" vertex="1" parent="bgD5cLqDtki60Nd9rSZ_-167">
          <mxGeometry x="86.61999999999989" y="160" width="70" height="39" as="geometry" />
        </mxCell>
        <object label="" id="bgD5cLqDtki60Nd9rSZ_-116">
          <mxCell style="ellipse;whiteSpace=wrap;html=1;points=[[0,0,0,0,0],[0,0.5,0,0,0],[0,1,0,0,0],[0.5,0,0,0,0],[0.5,1,0,0,0],[1,0,0,0,0],[1,0.5,0,0,0],[1,1,0,0,0]];container=0;" vertex="1" parent="bgD5cLqDtki60Nd9rSZ_-115">
            <mxGeometry y="9" width="70" height="30" as="geometry" />
          </mxCell>
        </object>
        <mxCell id="bgD5cLqDtki60Nd9rSZ_-117" value="&lt;h1&gt;&lt;span style=&quot;font-size: 11px; font-weight: 400;&quot;&gt;kérdező&lt;/span&gt;&lt;/h1&gt;" style="text;html=1;strokeColor=none;fillColor=none;spacing=5;spacingTop=-20;whiteSpace=wrap;overflow=hidden;rounded=0;container=0;" vertex="1" parent="bgD5cLqDtki60Nd9rSZ_-115">
          <mxGeometry x="13.5" width="48.5" height="37" as="geometry" />
        </mxCell>
        <mxCell id="bgD5cLqDtki60Nd9rSZ_-118" value="" style="group" connectable="0" vertex="1" parent="bgD5cLqDtki60Nd9rSZ_-167">
          <mxGeometry x="101.61999999999989" y="202" width="30" height="90" as="geometry" />
        </mxCell>
        <mxCell id="bgD5cLqDtki60Nd9rSZ_-119" value="" style="endArrow=none;html=1;rounded=0;" edge="1" parent="bgD5cLqDtki60Nd9rSZ_-118">
          <mxGeometry width="50" height="50" relative="1" as="geometry">
            <mxPoint x="16" y="37" as="sourcePoint" />
            <mxPoint x="16" y="-3" as="targetPoint" />
          </mxGeometry>
        </mxCell>
        <mxCell id="bgD5cLqDtki60Nd9rSZ_-120" value="" style="rounded=0;whiteSpace=wrap;html=1;direction=south;" vertex="1" parent="bgD5cLqDtki60Nd9rSZ_-118">
          <mxGeometry x="2" y="38" width="30" height="50" as="geometry" />
        </mxCell>
        <mxCell id="bgD5cLqDtki60Nd9rSZ_-142" value="" style="group" connectable="0" vertex="1" parent="bgD5cLqDtki60Nd9rSZ_-167">
          <mxGeometry x="279.6199999999999" y="32" width="120" height="50" as="geometry" />
        </mxCell>
        <object label="" id="bgD5cLqDtki60Nd9rSZ_-143">
          <mxCell style="ellipse;whiteSpace=wrap;html=1;points=[[0,0,0,0,0],[0,0.5,0,0,0],[0,1,0,0,0],[0.5,0,0,0,0],[0.5,1,0,0,0],[1,0,0,0,0],[1,0.5,0,0,0],[1,1,0,0,0]];" vertex="1" parent="bgD5cLqDtki60Nd9rSZ_-142">
            <mxGeometry width="120" height="50" as="geometry" />
          </mxCell>
        </object>
        <mxCell id="bgD5cLqDtki60Nd9rSZ_-144" value="&lt;h1&gt;&lt;font style=&quot;font-size: 11px; font-weight: normal;&quot;&gt;Nyelvtudás&lt;/font&gt;&lt;/h1&gt;" style="text;html=1;strokeColor=none;fillColor=none;spacing=5;spacingTop=-20;whiteSpace=wrap;overflow=hidden;rounded=0;" vertex="1" parent="bgD5cLqDtki60Nd9rSZ_-142">
          <mxGeometry x="24.5" width="71" height="40" as="geometry" />
        </mxCell>
        <mxCell id="bgD5cLqDtki60Nd9rSZ_-145" value="" style="group" connectable="0" vertex="1" parent="bgD5cLqDtki60Nd9rSZ_-167">
          <mxGeometry x="436.6199999999999" y="82" width="64.5" height="68" as="geometry" />
        </mxCell>
        <mxCell id="bgD5cLqDtki60Nd9rSZ_-146" value="" style="rhombus;whiteSpace=wrap;html=1;" vertex="1" parent="bgD5cLqDtki60Nd9rSZ_-145">
          <mxGeometry width="60" height="68" as="geometry" />
        </mxCell>
        <mxCell id="bgD5cLqDtki60Nd9rSZ_-147" value="&lt;h1 style=&quot;font-size: 10px;&quot;&gt;&lt;span style=&quot;font-size: 10px; font-weight: 400;&quot;&gt;&lt;u&gt;NY_ID&lt;/u&gt;&lt;/span&gt;&lt;/h1&gt;" style="text;html=1;strokeColor=none;fillColor=none;spacing=5;spacingTop=-20;whiteSpace=wrap;overflow=hidden;rounded=0;fontSize=10;" vertex="1" parent="bgD5cLqDtki60Nd9rSZ_-145">
          <mxGeometry x="9" y="30" width="41" height="8" as="geometry" />
        </mxCell>
        <mxCell id="bgD5cLqDtki60Nd9rSZ_-148" value="" style="group" connectable="0" vertex="1" parent="bgD5cLqDtki60Nd9rSZ_-167">
          <mxGeometry x="280.6199999999999" y="181" width="70" height="39" as="geometry" />
        </mxCell>
        <object label="" id="bgD5cLqDtki60Nd9rSZ_-149">
          <mxCell style="ellipse;whiteSpace=wrap;html=1;points=[[0,0,0,0,0],[0,0.5,0,0,0],[0,1,0,0,0],[0.5,0,0,0,0],[0.5,1,0,0,0],[1,0,0,0,0],[1,0.5,0,0,0],[1,1,0,0,0]];container=0;" vertex="1" parent="bgD5cLqDtki60Nd9rSZ_-148">
            <mxGeometry y="9" width="70" height="30" as="geometry" />
          </mxCell>
        </object>
        <mxCell id="bgD5cLqDtki60Nd9rSZ_-150" value="&lt;h1&gt;&lt;span style=&quot;font-size: 11px; font-weight: 400;&quot;&gt;nyelv&lt;/span&gt;&lt;/h1&gt;" style="text;html=1;strokeColor=none;fillColor=none;spacing=5;spacingTop=-20;whiteSpace=wrap;overflow=hidden;rounded=0;container=0;" vertex="1" parent="bgD5cLqDtki60Nd9rSZ_-148">
          <mxGeometry x="13.5" width="48.5" height="37" as="geometry" />
        </mxCell>
        <mxCell id="bgD5cLqDtki60Nd9rSZ_-151" value="" style="group" connectable="0" vertex="1" parent="bgD5cLqDtki60Nd9rSZ_-167">
          <mxGeometry x="374.6199999999999" y="180" width="70" height="39" as="geometry" />
        </mxCell>
        <object label="" id="bgD5cLqDtki60Nd9rSZ_-152">
          <mxCell style="ellipse;whiteSpace=wrap;html=1;points=[[0,0,0,0,0],[0,0.5,0,0,0],[0,1,0,0,0],[0.5,0,0,0,0],[0.5,1,0,0,0],[1,0,0,0,0],[1,0.5,0,0,0],[1,1,0,0,0]];container=0;" vertex="1" parent="bgD5cLqDtki60Nd9rSZ_-151">
            <mxGeometry y="9" width="70" height="30" as="geometry" />
          </mxCell>
        </object>
        <mxCell id="bgD5cLqDtki60Nd9rSZ_-153" value="&lt;h1&gt;&lt;span style=&quot;font-size: 11px; font-weight: 400;&quot;&gt;szint&lt;/span&gt;&lt;/h1&gt;" style="text;html=1;strokeColor=none;fillColor=none;spacing=5;spacingTop=-20;whiteSpace=wrap;overflow=hidden;rounded=0;container=0;" vertex="1" parent="bgD5cLqDtki60Nd9rSZ_-151">
          <mxGeometry x="13.5" y="-2" width="48.5" height="37" as="geometry" />
        </mxCell>
        <mxCell id="bgD5cLqDtki60Nd9rSZ_-154" value="" style="endArrow=none;html=1;rounded=0;exitX=0;exitY=0.5;exitDx=0;exitDy=0;" edge="1" parent="bgD5cLqDtki60Nd9rSZ_-167" source="bgD5cLqDtki60Nd9rSZ_-146" target="bgD5cLqDtki60Nd9rSZ_-143">
          <mxGeometry width="50" height="50" relative="1" as="geometry">
            <mxPoint x="436.6199999999999" y="107" as="sourcePoint" />
            <mxPoint x="321.6199999999999" y="82" as="targetPoint" />
          </mxGeometry>
        </mxCell>
        <mxCell id="bgD5cLqDtki60Nd9rSZ_-155" value="" style="endArrow=none;html=1;rounded=0;entryX=0.367;entryY=1;entryDx=0;entryDy=0;entryPerimeter=0;" edge="1" parent="bgD5cLqDtki60Nd9rSZ_-167">
          <mxGeometry width="50" height="50" relative="1" as="geometry">
            <mxPoint x="308.1199999999999" y="189.5" as="sourcePoint" />
            <mxPoint x="313.15999999999985" y="79.5" as="targetPoint" />
          </mxGeometry>
        </mxCell>
        <mxCell id="bgD5cLqDtki60Nd9rSZ_-156" value="" style="endArrow=none;html=1;rounded=0;exitX=0;exitY=0.25;exitDx=0;exitDy=0;" edge="1" parent="bgD5cLqDtki60Nd9rSZ_-167" source="bgD5cLqDtki60Nd9rSZ_-153">
          <mxGeometry width="50" height="50" relative="1" as="geometry">
            <mxPoint x="365.6199999999999" y="187" as="sourcePoint" />
            <mxPoint x="349.6199999999999" y="82" as="targetPoint" />
          </mxGeometry>
        </mxCell>
        <mxCell id="bgD5cLqDtki60Nd9rSZ_-157" value="" style="group" connectable="0" vertex="1" parent="bgD5cLqDtki60Nd9rSZ_-167">
          <mxGeometry x="300.6199999999999" y="222" width="30" height="90" as="geometry" />
        </mxCell>
        <mxCell id="bgD5cLqDtki60Nd9rSZ_-158" value="" style="endArrow=none;html=1;rounded=0;" edge="1" parent="bgD5cLqDtki60Nd9rSZ_-157">
          <mxGeometry width="50" height="50" relative="1" as="geometry">
            <mxPoint x="16" y="37" as="sourcePoint" />
            <mxPoint x="16" y="-3" as="targetPoint" />
          </mxGeometry>
        </mxCell>
        <mxCell id="bgD5cLqDtki60Nd9rSZ_-159" value="" style="rounded=0;whiteSpace=wrap;html=1;direction=south;" vertex="1" parent="bgD5cLqDtki60Nd9rSZ_-157">
          <mxGeometry x="2" y="38" width="30" height="50" as="geometry" />
        </mxCell>
        <mxCell id="bgD5cLqDtki60Nd9rSZ_-160" value="" style="group" connectable="0" vertex="1" parent="bgD5cLqDtki60Nd9rSZ_-167">
          <mxGeometry x="392.6199999999999" y="222" width="30" height="90" as="geometry" />
        </mxCell>
        <mxCell id="bgD5cLqDtki60Nd9rSZ_-161" value="" style="endArrow=none;html=1;rounded=0;" edge="1" parent="bgD5cLqDtki60Nd9rSZ_-160">
          <mxGeometry width="50" height="50" relative="1" as="geometry">
            <mxPoint x="16" y="37" as="sourcePoint" />
            <mxPoint x="16" y="-3" as="targetPoint" />
          </mxGeometry>
        </mxCell>
        <mxCell id="bgD5cLqDtki60Nd9rSZ_-162" value="" style="rounded=0;whiteSpace=wrap;html=1;direction=south;" vertex="1" parent="bgD5cLqDtki60Nd9rSZ_-160">
          <mxGeometry x="2" y="38" width="30" height="50" as="geometry" />
        </mxCell>
        <mxCell id="bgD5cLqDtki60Nd9rSZ_-166" value="" style="endArrow=none;html=1;rounded=0;entryX=0;entryY=0.5;entryDx=0;entryDy=0;entryPerimeter=0;exitX=1;exitY=0.5;exitDx=0;exitDy=0;" edge="1" parent="bgD5cLqDtki60Nd9rSZ_-167" source="bgD5cLqDtki60Nd9rSZ_-106" target="bgD5cLqDtki60Nd9rSZ_-143">
          <mxGeometry width="50" height="50" relative="1" as="geometry">
            <mxPoint x="226.6199999999999" y="120" as="sourcePoint" />
            <mxPoint x="231.6199999999999" y="10" as="targetPoint" />
          </mxGeometry>
        </mxCell>
        <mxCell id="bgD5cLqDtki60Nd9rSZ_-326" value="&lt;h1&gt;&lt;font style=&quot;font-size: 11px; font-weight: normal;&quot;&gt;közvélemény&lt;/font&gt;&lt;/h1&gt;" style="text;html=1;strokeColor=none;fillColor=none;spacing=5;spacingTop=-20;whiteSpace=wrap;overflow=hidden;rounded=0;" vertex="1" parent="bgD5cLqDtki60Nd9rSZ_-167">
          <mxGeometry x="82.61999999999978" y="30" width="71" height="40" as="geometry" />
        </mxCell>
        <mxCell id="bgD5cLqDtki60Nd9rSZ_-217" value="" style="group" connectable="0" vertex="1" parent="WIyWlLk6GJQsqaUBKTNV-1">
          <mxGeometry x="0.5" y="-120" width="60" height="68" as="geometry" />
        </mxCell>
        <mxCell id="bgD5cLqDtki60Nd9rSZ_-218" value="" style="rhombus;whiteSpace=wrap;html=1;container=0;" vertex="1" parent="bgD5cLqDtki60Nd9rSZ_-217">
          <mxGeometry width="60" height="68" as="geometry" />
        </mxCell>
        <mxCell id="bgD5cLqDtki60Nd9rSZ_-219" value="&lt;h1 style=&quot;font-size: 10px;&quot;&gt;&lt;span style=&quot;font-size: 10px; font-weight: 400;&quot;&gt;&lt;u&gt;B_A&lt;/u&gt;&lt;/span&gt;&lt;/h1&gt;" style="text;html=1;strokeColor=none;fillColor=none;spacing=5;spacingTop=-20;whiteSpace=wrap;overflow=hidden;rounded=0;fontSize=10;container=0;" vertex="1" parent="bgD5cLqDtki60Nd9rSZ_-217">
          <mxGeometry x="13.12" y="30" width="33.75" height="8" as="geometry" />
        </mxCell>
        <mxCell id="bgD5cLqDtki60Nd9rSZ_-170" value="" style="endArrow=none;html=1;rounded=0;exitX=0;exitY=0.5;exitDx=0;exitDy=0;" edge="1" parent="WIyWlLk6GJQsqaUBKTNV-1" source="bgD5cLqDtki60Nd9rSZ_-172">
          <mxGeometry width="50" height="50" relative="1" as="geometry">
            <mxPoint x="119.75" y="-312" as="sourcePoint" />
            <mxPoint x="230" y="-90" as="targetPoint" />
          </mxGeometry>
        </mxCell>
        <mxCell id="bgD5cLqDtki60Nd9rSZ_-171" value="" style="group" connectable="0" vertex="1" parent="WIyWlLk6GJQsqaUBKTNV-1">
          <mxGeometry x="280" y="-136.5" width="60" height="68" as="geometry" />
        </mxCell>
        <mxCell id="bgD5cLqDtki60Nd9rSZ_-172" value="" style="rhombus;whiteSpace=wrap;html=1;container=0;" vertex="1" parent="bgD5cLqDtki60Nd9rSZ_-171">
          <mxGeometry width="60" height="68" as="geometry" />
        </mxCell>
        <mxCell id="bgD5cLqDtki60Nd9rSZ_-173" value="&lt;h1 style=&quot;font-size: 10px;&quot;&gt;&lt;span style=&quot;font-size: 10px; font-weight: 400;&quot;&gt;&lt;u&gt;A_ID&lt;/u&gt;&lt;/span&gt;&lt;/h1&gt;" style="text;html=1;strokeColor=none;fillColor=none;spacing=5;spacingTop=-20;whiteSpace=wrap;overflow=hidden;rounded=0;fontSize=10;container=0;" vertex="1" parent="bgD5cLqDtki60Nd9rSZ_-171">
          <mxGeometry x="13.12" y="30" width="33.75" height="8" as="geometry" />
        </mxCell>
        <mxCell id="bgD5cLqDtki60Nd9rSZ_-221" value="" style="ellipse;shape=doubleEllipse;whiteSpace=wrap;html=1;" vertex="1" parent="WIyWlLk6GJQsqaUBKTNV-1">
          <mxGeometry x="129" y="-110" width="100" height="60" as="geometry" />
        </mxCell>
        <mxCell id="bgD5cLqDtki60Nd9rSZ_-222" value="&lt;h1&gt;&lt;font style=&quot;font-size: 11px; font-weight: normal;&quot;&gt;Alkalmazott&lt;/font&gt;&lt;/h1&gt;" style="text;html=1;strokeColor=none;fillColor=none;spacing=5;spacingTop=-20;whiteSpace=wrap;overflow=hidden;rounded=0;container=0;" vertex="1" parent="WIyWlLk6GJQsqaUBKTNV-1">
          <mxGeometry x="146" y="-104" width="75" height="40" as="geometry" />
        </mxCell>
        <mxCell id="bgD5cLqDtki60Nd9rSZ_-270" value="" style="endArrow=none;html=1;rounded=0;entryX=0;entryY=0;entryDx=0;entryDy=0;exitX=0.5;exitY=1;exitDx=0;exitDy=0;" edge="1" parent="WIyWlLk6GJQsqaUBKTNV-1" source="bgD5cLqDtki60Nd9rSZ_-273" target="bgD5cLqDtki60Nd9rSZ_-222">
          <mxGeometry width="50" height="50" relative="1" as="geometry">
            <mxPoint x="123.5" y="-257.5" as="sourcePoint" />
            <mxPoint x="123.88000000000011" y="-317.5" as="targetPoint" />
          </mxGeometry>
        </mxCell>
        <mxCell id="bgD5cLqDtki60Nd9rSZ_-271" value="" style="group" connectable="0" vertex="1" parent="WIyWlLk6GJQsqaUBKTNV-1">
          <mxGeometry x="69" y="-224.5" width="80" height="74.5" as="geometry" />
        </mxCell>
        <object label="" id="bgD5cLqDtki60Nd9rSZ_-272">
          <mxCell style="ellipse;whiteSpace=wrap;html=1;points=[[0,0,0,0,0],[0,0.5,0,0,0],[0,1,0,0,0],[0.5,0,0,0,0],[0.5,1,0,0,0],[1,0,0,0,0],[1,0.5,0,0,0],[1,1,0,0,0]];container=0;" vertex="1" parent="bgD5cLqDtki60Nd9rSZ_-271">
            <mxGeometry y="9" width="70" height="30" as="geometry" />
          </mxCell>
        </object>
        <mxCell id="bgD5cLqDtki60Nd9rSZ_-273" value="&lt;h1&gt;&lt;span style=&quot;font-size: 11px; font-weight: 400;&quot;&gt;név&lt;/span&gt;&lt;/h1&gt;" style="text;html=1;strokeColor=none;fillColor=none;spacing=5;spacingTop=-20;whiteSpace=wrap;overflow=hidden;rounded=0;container=0;" vertex="1" parent="bgD5cLqDtki60Nd9rSZ_-271">
          <mxGeometry x="13.5" width="48.5" height="37" as="geometry" />
        </mxCell>
        <mxCell id="bgD5cLqDtki60Nd9rSZ_-287" value="" style="group" connectable="0" vertex="1" parent="bgD5cLqDtki60Nd9rSZ_-271">
          <mxGeometry x="50" y="-15.5" width="30" height="90" as="geometry" />
        </mxCell>
        <mxCell id="bgD5cLqDtki60Nd9rSZ_-285" value="" style="ellipse;shape=doubleEllipse;whiteSpace=wrap;html=1;" vertex="1" parent="WIyWlLk6GJQsqaUBKTNV-1">
          <mxGeometry x="147" y="-221" width="64" height="40" as="geometry" />
        </mxCell>
        <mxCell id="bgD5cLqDtki60Nd9rSZ_-286" value="&lt;h1&gt;&lt;span style=&quot;font-size: 11px; font-weight: 400;&quot;&gt;műszak&lt;/span&gt;&lt;/h1&gt;" style="text;html=1;strokeColor=none;fillColor=none;spacing=5;spacingTop=-20;whiteSpace=wrap;overflow=hidden;rounded=0;container=0;" vertex="1" parent="WIyWlLk6GJQsqaUBKTNV-1">
          <mxGeometry x="159" y="-224.5" width="48.5" height="37" as="geometry" />
        </mxCell>
        <mxCell id="bgD5cLqDtki60Nd9rSZ_-310" value="" style="endArrow=none;html=1;rounded=0;exitX=0.25;exitY=1;exitDx=0;exitDy=0;" edge="1" parent="WIyWlLk6GJQsqaUBKTNV-1" source="bgD5cLqDtki60Nd9rSZ_-313" target="bgD5cLqDtki60Nd9rSZ_-221">
          <mxGeometry width="50" height="50" relative="1" as="geometry">
            <mxPoint x="278.5" y="-257.5" as="sourcePoint" />
            <mxPoint x="278.8800000000001" y="-317.5" as="targetPoint" />
          </mxGeometry>
        </mxCell>
        <mxCell id="bgD5cLqDtki60Nd9rSZ_-311" value="" style="group" connectable="0" vertex="1" parent="WIyWlLk6GJQsqaUBKTNV-1">
          <mxGeometry x="224" y="-224.5" width="70" height="39" as="geometry" />
        </mxCell>
        <object label="" id="bgD5cLqDtki60Nd9rSZ_-312">
          <mxCell style="ellipse;whiteSpace=wrap;html=1;points=[[0,0,0,0,0],[0,0.5,0,0,0],[0,1,0,0,0],[0.5,0,0,0,0],[0.5,1,0,0,0],[1,0,0,0,0],[1,0.5,0,0,0],[1,1,0,0,0]];container=0;" vertex="1" parent="bgD5cLqDtki60Nd9rSZ_-311">
            <mxGeometry y="9" width="70" height="30" as="geometry" />
          </mxCell>
        </object>
        <mxCell id="bgD5cLqDtki60Nd9rSZ_-313" value="&lt;h1&gt;&lt;span style=&quot;font-size: 11px; font-weight: 400;&quot;&gt;fizetés&lt;/span&gt;&lt;/h1&gt;" style="text;html=1;strokeColor=none;fillColor=none;spacing=5;spacingTop=-20;whiteSpace=wrap;overflow=hidden;rounded=0;container=0;" vertex="1" parent="bgD5cLqDtki60Nd9rSZ_-311">
          <mxGeometry x="13.5" width="48.5" height="37" as="geometry" />
        </mxCell>
        <mxCell id="bgD5cLqDtki60Nd9rSZ_-317" value="" style="group" connectable="0" vertex="1" parent="WIyWlLk6GJQsqaUBKTNV-1">
          <mxGeometry x="273.5" y="-215.5" width="30" height="90" as="geometry" />
        </mxCell>
        <mxCell id="bgD5cLqDtki60Nd9rSZ_-318" value="" style="endArrow=none;html=1;rounded=0;exitX=0.25;exitY=1;exitDx=0;exitDy=0;entryX=0.44;entryY=-0.05;entryDx=0;entryDy=0;entryPerimeter=0;" edge="1" parent="WIyWlLk6GJQsqaUBKTNV-1" source="bgD5cLqDtki60Nd9rSZ_-286" target="bgD5cLqDtki60Nd9rSZ_-221">
          <mxGeometry width="50" height="50" relative="1" as="geometry">
            <mxPoint x="160.5" y="-248.5" as="sourcePoint" />
            <mxPoint x="195.5" y="-352" as="targetPoint" />
          </mxGeometry>
        </mxCell>
        <mxCell id="bgD5cLqDtki60Nd9rSZ_-320" value="" style="endArrow=block;dashed=1;endFill=0;endSize=12;html=1;rounded=0;entryX=0.5;entryY=1;entryDx=0;entryDy=0;" edge="1" parent="WIyWlLk6GJQsqaUBKTNV-1" target="2iRlPU97kEJJlgAq3W9q-29">
          <mxGeometry width="160" relative="1" as="geometry">
            <mxPoint x="-260" y="580" as="sourcePoint" />
            <mxPoint x="-370" y="520" as="targetPoint" />
          </mxGeometry>
        </mxCell>
        <mxCell id="bgD5cLqDtki60Nd9rSZ_-323" value="" style="endArrow=none;dashed=1;html=1;rounded=0;entryX=0.5;entryY=1;entryDx=0;entryDy=0;" edge="1" parent="WIyWlLk6GJQsqaUBKTNV-1" target="bgD5cLqDtki60Nd9rSZ_-101">
          <mxGeometry width="50" height="50" relative="1" as="geometry">
            <mxPoint x="-310" y="260" as="sourcePoint" />
            <mxPoint x="290" y="270" as="targetPoint" />
            <Array as="points">
              <mxPoint x="-310" y="640" />
              <mxPoint x="616" y="640" />
            </Array>
          </mxGeometry>
        </mxCell>
        <mxCell id="bgD5cLqDtki60Nd9rSZ_-324" value="" style="endArrow=block;dashed=1;endFill=0;endSize=12;html=1;rounded=0;entryX=0;entryY=0;entryDx=0;entryDy=0;" edge="1" parent="WIyWlLk6GJQsqaUBKTNV-1" target="2iRlPU97kEJJlgAq3W9q-30">
          <mxGeometry width="160" relative="1" as="geometry">
            <mxPoint x="-310" y="260" as="sourcePoint" />
            <mxPoint x="-250" y="309" as="targetPoint" />
          </mxGeometry>
        </mxCell>
        <mxCell id="bgD5cLqDtki60Nd9rSZ_-325" value="" style="endArrow=block;dashed=1;endFill=0;endSize=12;html=1;rounded=0;entryX=0.467;entryY=0.912;entryDx=0;entryDy=0;entryPerimeter=0;exitX=0.5;exitY=0;exitDx=0;exitDy=0;" edge="1" parent="WIyWlLk6GJQsqaUBKTNV-1" source="bgD5cLqDtki60Nd9rSZ_-106">
          <mxGeometry width="160" relative="1" as="geometry">
            <mxPoint x="1018.6199999999999" y="325" as="sourcePoint" />
            <mxPoint x="880.02" y="245.01600000000008" as="targetPoint" />
            <Array as="points">
              <mxPoint x="880" y="320" />
            </Array>
          </mxGeometry>
        </mxCell>
        <mxCell id="bgD5cLqDtki60Nd9rSZ_-331" value="" style="group" connectable="0" vertex="1" parent="WIyWlLk6GJQsqaUBKTNV-1">
          <mxGeometry x="-290" y="10" width="66" height="68" as="geometry" />
        </mxCell>
        <mxCell id="bgD5cLqDtki60Nd9rSZ_-328" value="" style="rhombus;whiteSpace=wrap;html=1;" vertex="1" parent="bgD5cLqDtki60Nd9rSZ_-331">
          <mxGeometry width="60" height="68" as="geometry" />
        </mxCell>
        <mxCell id="bgD5cLqDtki60Nd9rSZ_-329" value="&lt;h1 style=&quot;font-size: 10px;&quot;&gt;&lt;br&gt;&lt;/h1&gt;" style="text;html=1;strokeColor=none;fillColor=none;spacing=5;spacingTop=-20;whiteSpace=wrap;overflow=hidden;rounded=0;fontSize=10;" vertex="1" parent="bgD5cLqDtki60Nd9rSZ_-331">
          <mxGeometry x="4" y="30" width="62" height="8" as="geometry" />
        </mxCell>
        <mxCell id="bgD5cLqDtki60Nd9rSZ_-330" value="&lt;h1&gt;&lt;font style=&quot;font-size: 11px; font-weight: normal;&quot;&gt;FESZ_B&lt;/font&gt;&lt;/h1&gt;" style="text;html=1;strokeColor=none;fillColor=none;spacing=5;spacingTop=-20;whiteSpace=wrap;overflow=hidden;rounded=0;" vertex="1" parent="bgD5cLqDtki60Nd9rSZ_-331">
          <mxGeometry x="4" y="8" width="60" height="40" as="geometry" />
        </mxCell>
        <mxCell id="bgD5cLqDtki60Nd9rSZ_-332" value="" style="endArrow=block;dashed=1;endFill=0;endSize=12;html=1;rounded=0;entryX=0.5;entryY=0;entryDx=0;entryDy=0;exitX=0.5;exitY=1;exitDx=0;exitDy=0;" edge="1" parent="WIyWlLk6GJQsqaUBKTNV-1" source="bgD5cLqDtki60Nd9rSZ_-328" target="2iRlPU97kEJJlgAq3W9q-29">
          <mxGeometry width="160" relative="1" as="geometry">
            <mxPoint x="-170" y="-50" as="sourcePoint" />
            <mxPoint x="-10" y="-50" as="targetPoint" />
          </mxGeometry>
        </mxCell>
        <mxCell id="bgD5cLqDtki60Nd9rSZ_-183" value="" style="group" connectable="0" vertex="1" parent="WIyWlLk6GJQsqaUBKTNV-1">
          <mxGeometry x="-290" y="-110" width="64.5" height="68" as="geometry" />
        </mxCell>
        <mxCell id="bgD5cLqDtki60Nd9rSZ_-184" value="" style="rhombus;whiteSpace=wrap;html=1;" vertex="1" parent="bgD5cLqDtki60Nd9rSZ_-183">
          <mxGeometry width="60" height="68" as="geometry" />
        </mxCell>
        <mxCell id="bgD5cLqDtki60Nd9rSZ_-185" value="&lt;h1 style=&quot;font-size: 10px;&quot;&gt;&lt;span style=&quot;font-size: 10px; font-weight: 400;&quot;&gt;&lt;u&gt;B_ID&lt;/u&gt;&lt;/span&gt;&lt;/h1&gt;" style="text;html=1;strokeColor=none;fillColor=none;spacing=5;spacingTop=-20;whiteSpace=wrap;overflow=hidden;rounded=0;fontSize=10;" vertex="1" parent="bgD5cLqDtki60Nd9rSZ_-183">
          <mxGeometry x="9" y="30" width="41" height="8" as="geometry" />
        </mxCell>
        <mxCell id="bgD5cLqDtki60Nd9rSZ_-186" value="" style="group" connectable="0" vertex="1" parent="WIyWlLk6GJQsqaUBKTNV-1">
          <mxGeometry x="-251.5" y="-224" width="70" height="39" as="geometry" />
        </mxCell>
        <object label="" id="bgD5cLqDtki60Nd9rSZ_-187">
          <mxCell style="ellipse;whiteSpace=wrap;html=1;points=[[0,0,0,0,0],[0,0.5,0,0,0],[0,1,0,0,0],[0.5,0,0,0,0],[0.5,1,0,0,0],[1,0,0,0,0],[1,0.5,0,0,0],[1,1,0,0,0]];container=0;" vertex="1" parent="bgD5cLqDtki60Nd9rSZ_-186">
            <mxGeometry y="9" width="70" height="30" as="geometry" />
          </mxCell>
        </object>
        <mxCell id="bgD5cLqDtki60Nd9rSZ_-188" value="&lt;h1&gt;&lt;span style=&quot;font-size: 11px; font-weight: 400;&quot;&gt;név&lt;/span&gt;&lt;/h1&gt;" style="text;html=1;strokeColor=none;fillColor=none;spacing=5;spacingTop=-20;whiteSpace=wrap;overflow=hidden;rounded=0;container=0;" vertex="1" parent="bgD5cLqDtki60Nd9rSZ_-186">
          <mxGeometry x="13.5" width="48.5" height="37" as="geometry" />
        </mxCell>
        <mxCell id="bgD5cLqDtki60Nd9rSZ_-192" value="" style="endArrow=none;html=1;rounded=0;entryX=0.283;entryY=0.94;entryDx=0;entryDy=0;entryPerimeter=0;exitX=1;exitY=0.5;exitDx=0;exitDy=0;" edge="1" parent="WIyWlLk6GJQsqaUBKTNV-1" source="bgD5cLqDtki60Nd9rSZ_-184">
          <mxGeometry width="50" height="50" relative="1" as="geometry">
            <mxPoint x="-152.5" y="44" as="sourcePoint" />
            <mxPoint x="-158.53999999999996" y="-69" as="targetPoint" />
          </mxGeometry>
        </mxCell>
        <mxCell id="bgD5cLqDtki60Nd9rSZ_-193" value="" style="endArrow=none;html=1;rounded=0;entryX=0.245;entryY=0.117;entryDx=0;entryDy=0;exitX=0.5;exitY=1;exitDx=0;exitDy=0;entryPerimeter=0;" edge="1" parent="WIyWlLk6GJQsqaUBKTNV-1" source="bgD5cLqDtki60Nd9rSZ_-188" target="bgD5cLqDtki60Nd9rSZ_-204">
          <mxGeometry width="50" height="50" relative="1" as="geometry">
            <mxPoint x="-215.5" y="44" as="sourcePoint" />
            <mxPoint x="-198.46000000000004" y="-60.5" as="targetPoint" />
          </mxGeometry>
        </mxCell>
        <mxCell id="bgD5cLqDtki60Nd9rSZ_-194" value="" style="endArrow=none;html=1;rounded=0;exitX=0;exitY=0.75;exitDx=0;exitDy=0;entryX=0.765;entryY=0.1;entryDx=0;entryDy=0;entryPerimeter=0;" edge="1" parent="WIyWlLk6GJQsqaUBKTNV-1" source="bgD5cLqDtki60Nd9rSZ_-191" target="bgD5cLqDtki60Nd9rSZ_-204">
          <mxGeometry width="50" height="50" relative="1" as="geometry">
            <mxPoint x="-106.5" y="39" as="sourcePoint" />
            <mxPoint x="-122.5" y="-66" as="targetPoint" />
          </mxGeometry>
        </mxCell>
        <mxCell id="bgD5cLqDtki60Nd9rSZ_-204" value="" style="ellipse;shape=doubleEllipse;whiteSpace=wrap;html=1;" vertex="1" parent="WIyWlLk6GJQsqaUBKTNV-1">
          <mxGeometry x="-191.5" y="-116" width="100" height="60" as="geometry" />
        </mxCell>
        <mxCell id="bgD5cLqDtki60Nd9rSZ_-205" value="&lt;h1&gt;&lt;font style=&quot;font-size: 11px; font-weight: normal;&quot;&gt;Bár&lt;/font&gt;&lt;/h1&gt;" style="text;html=1;strokeColor=none;fillColor=none;spacing=5;spacingTop=-20;whiteSpace=wrap;overflow=hidden;rounded=0;" vertex="1" parent="WIyWlLk6GJQsqaUBKTNV-1">
          <mxGeometry x="-154.25" y="-110" width="25.5" height="40" as="geometry" />
        </mxCell>
        <mxCell id="bgD5cLqDtki60Nd9rSZ_-207" value="" style="ellipse;shape=doubleEllipse;whiteSpace=wrap;html=1;" vertex="1" parent="WIyWlLk6GJQsqaUBKTNV-1">
          <mxGeometry x="-172.5" y="-221" width="64" height="40" as="geometry" />
        </mxCell>
        <mxCell id="bgD5cLqDtki60Nd9rSZ_-208" value="&lt;h1&gt;&lt;span style=&quot;font-size: 11px; font-weight: 400;&quot;&gt;ital&lt;/span&gt;&lt;/h1&gt;" style="text;html=1;strokeColor=none;fillColor=none;spacing=5;spacingTop=-20;whiteSpace=wrap;overflow=hidden;rounded=0;container=0;" vertex="1" parent="WIyWlLk6GJQsqaUBKTNV-1">
          <mxGeometry x="-152" y="-227" width="48.5" height="37" as="geometry" />
        </mxCell>
        <mxCell id="bgD5cLqDtki60Nd9rSZ_-212" value="" style="endArrow=none;html=1;rounded=0;exitX=0.5;exitY=1;exitDx=0;exitDy=0;" edge="1" parent="WIyWlLk6GJQsqaUBKTNV-1" source="bgD5cLqDtki60Nd9rSZ_-207">
          <mxGeometry width="50" height="50" relative="1" as="geometry">
            <mxPoint x="-146.5" y="44" as="sourcePoint" />
            <mxPoint x="-140" y="-114" as="targetPoint" />
          </mxGeometry>
        </mxCell>
        <object label="" id="bgD5cLqDtki60Nd9rSZ_-190">
          <mxCell style="ellipse;whiteSpace=wrap;html=1;points=[[0,0,0,0,0],[0,0.5,0,0,0],[0,1,0,0,0],[0.5,0,0,0,0],[0.5,1,0,0,0],[1,0,0,0,0],[1,0.5,0,0,0],[1,1,0,0,0]];container=0;" vertex="1" parent="WIyWlLk6GJQsqaUBKTNV-1">
            <mxGeometry x="-101.5" y="-215" width="70" height="30" as="geometry" />
          </mxCell>
        </object>
        <mxCell id="bgD5cLqDtki60Nd9rSZ_-191" value="&lt;h1&gt;&lt;span style=&quot;font-size: 11px; font-weight: 400;&quot;&gt;cég&lt;/span&gt;&lt;/h1&gt;" style="text;html=1;strokeColor=none;fillColor=none;spacing=5;spacingTop=-20;whiteSpace=wrap;overflow=hidden;rounded=0;container=0;" vertex="1" parent="WIyWlLk6GJQsqaUBKTNV-1">
          <mxGeometry x="-88" y="-224" width="48.5" height="37" as="geometry" />
        </mxCell>
        <mxCell id="bgD5cLqDtki60Nd9rSZ_-200" value="" style="rounded=0;whiteSpace=wrap;html=1;direction=south;" vertex="1" parent="WIyWlLk6GJQsqaUBKTNV-1">
          <mxGeometry x="-77.5" y="-313" width="30" height="50" as="geometry" />
        </mxCell>
        <mxCell id="bgD5cLqDtki60Nd9rSZ_-335" value="" style="rounded=0;whiteSpace=wrap;html=1;direction=south;" vertex="1" parent="WIyWlLk6GJQsqaUBKTNV-1">
          <mxGeometry x="-152" y="-313" width="30" height="50" as="geometry" />
        </mxCell>
        <mxCell id="bgD5cLqDtki60Nd9rSZ_-336" value="" style="rounded=0;whiteSpace=wrap;html=1;direction=south;" vertex="1" parent="WIyWlLk6GJQsqaUBKTNV-1">
          <mxGeometry x="-231.5" y="-313" width="30" height="50" as="geometry" />
        </mxCell>
        <mxCell id="bgD5cLqDtki60Nd9rSZ_-337" value="" style="endArrow=none;html=1;rounded=0;" edge="1" parent="WIyWlLk6GJQsqaUBKTNV-1" target="bgD5cLqDtki60Nd9rSZ_-336">
          <mxGeometry width="50" height="50" relative="1" as="geometry">
            <mxPoint x="-214" y="-224" as="sourcePoint" />
            <mxPoint x="-70" y="-74" as="targetPoint" />
          </mxGeometry>
        </mxCell>
        <mxCell id="bgD5cLqDtki60Nd9rSZ_-338" value="" style="endArrow=none;html=1;rounded=0;entryX=1;entryY=0.5;entryDx=0;entryDy=0;" edge="1" parent="WIyWlLk6GJQsqaUBKTNV-1">
          <mxGeometry width="50" height="50" relative="1" as="geometry">
            <mxPoint x="-136" y="-224" as="sourcePoint" />
            <mxPoint x="-136.5" y="-263" as="targetPoint" />
          </mxGeometry>
        </mxCell>
        <mxCell id="bgD5cLqDtki60Nd9rSZ_-339" value="" style="endArrow=none;html=1;rounded=0;entryX=1;entryY=0.5;entryDx=0;entryDy=0;" edge="1" parent="WIyWlLk6GJQsqaUBKTNV-1" target="bgD5cLqDtki60Nd9rSZ_-200">
          <mxGeometry width="50" height="50" relative="1" as="geometry">
            <mxPoint x="-62" y="-214" as="sourcePoint" />
            <mxPoint x="-126.5" y="-253" as="targetPoint" />
          </mxGeometry>
        </mxCell>
        <mxCell id="bgD5cLqDtki60Nd9rSZ_-340" value="" style="endArrow=block;dashed=1;endFill=0;endSize=12;html=1;rounded=0;entryX=1;entryY=0.5;entryDx=0;entryDy=0;exitX=0;exitY=0.5;exitDx=0;exitDy=0;" edge="1" parent="WIyWlLk6GJQsqaUBKTNV-1" source="bgD5cLqDtki60Nd9rSZ_-218" target="bgD5cLqDtki60Nd9rSZ_-204">
          <mxGeometry width="160" relative="1" as="geometry">
            <mxPoint x="-250" y="88" as="sourcePoint" />
            <mxPoint x="-250" y="241" as="targetPoint" />
          </mxGeometry>
        </mxCell>
        <mxCell id="bgD5cLqDtki60Nd9rSZ_-341" value="" style="endArrow=block;dashed=1;endFill=0;endSize=12;html=1;rounded=0;entryX=0.5;entryY=0;entryDx=0;entryDy=0;" edge="1" parent="WIyWlLk6GJQsqaUBKTNV-1" target="bgD5cLqDtki60Nd9rSZ_-328">
          <mxGeometry width="160" relative="1" as="geometry">
            <mxPoint x="-260" y="-40" as="sourcePoint" />
            <mxPoint x="-81" y="-76" as="targetPoint" />
          </mxGeometry>
        </mxCell>
        <mxCell id="bgD5cLqDtki60Nd9rSZ_-342" value="" style="rounded=0;whiteSpace=wrap;html=1;direction=south;" vertex="1" parent="WIyWlLk6GJQsqaUBKTNV-1">
          <mxGeometry x="240" y="-313" width="30" height="50" as="geometry" />
        </mxCell>
        <mxCell id="bgD5cLqDtki60Nd9rSZ_-343" value="" style="rounded=0;whiteSpace=wrap;html=1;direction=south;" vertex="1" parent="WIyWlLk6GJQsqaUBKTNV-1">
          <mxGeometry x="165.5" y="-313" width="30" height="50" as="geometry" />
        </mxCell>
        <mxCell id="bgD5cLqDtki60Nd9rSZ_-344" value="" style="rounded=0;whiteSpace=wrap;html=1;direction=south;" vertex="1" parent="WIyWlLk6GJQsqaUBKTNV-1">
          <mxGeometry x="86" y="-313" width="30" height="50" as="geometry" />
        </mxCell>
        <mxCell id="bgD5cLqDtki60Nd9rSZ_-345" value="" style="endArrow=none;html=1;rounded=0;" edge="1" parent="WIyWlLk6GJQsqaUBKTNV-1" target="bgD5cLqDtki60Nd9rSZ_-344">
          <mxGeometry width="50" height="50" relative="1" as="geometry">
            <mxPoint x="100" y="-220" as="sourcePoint" />
            <mxPoint x="247.5" y="-74" as="targetPoint" />
          </mxGeometry>
        </mxCell>
        <mxCell id="bgD5cLqDtki60Nd9rSZ_-346" value="" style="endArrow=none;html=1;rounded=0;entryX=1;entryY=0.5;entryDx=0;entryDy=0;" edge="1" parent="WIyWlLk6GJQsqaUBKTNV-1">
          <mxGeometry width="50" height="50" relative="1" as="geometry">
            <mxPoint x="181.5" y="-224" as="sourcePoint" />
            <mxPoint x="181" y="-263" as="targetPoint" />
          </mxGeometry>
        </mxCell>
        <mxCell id="bgD5cLqDtki60Nd9rSZ_-347" value="" style="endArrow=none;html=1;rounded=0;entryX=1;entryY=0.5;entryDx=0;entryDy=0;" edge="1" parent="WIyWlLk6GJQsqaUBKTNV-1" target="bgD5cLqDtki60Nd9rSZ_-342">
          <mxGeometry width="50" height="50" relative="1" as="geometry">
            <mxPoint x="255.5" y="-214" as="sourcePoint" />
            <mxPoint x="191" y="-253" as="targetPoint" />
          </mxGeometry>
        </mxCell>
        <mxCell id="bgD5cLqDtki60Nd9rSZ_-350" value="" style="endArrow=none;html=1;rounded=0;exitX=1;exitY=0.5;exitDx=0;exitDy=0;entryX=0;entryY=0.5;entryDx=0;entryDy=0;" edge="1" parent="WIyWlLk6GJQsqaUBKTNV-1" source="bgD5cLqDtki60Nd9rSZ_-218" target="bgD5cLqDtki60Nd9rSZ_-221">
          <mxGeometry width="50" height="50" relative="1" as="geometry">
            <mxPoint x="-160" y="-60" as="sourcePoint" />
            <mxPoint x="140" y="-86" as="targetPoint" />
          </mxGeometry>
        </mxCell>
      </root>
    </mxGraphModel>
  </diagram>
</mxfile>
